<svg id="svg" version="1.1" xmlns="http://www.w3.org/2000/svg" xmlns:xlink="http://www.w3.org/1999/xlink" width="400" height="360.46814044213266" viewBox="0, 0, 400,360.46814044213266"><g id="svgg"><path id="path0" d="M198.952 49.678 C 198.170 50.379,197.646 50.953,197.789 50.954 C 198.105 50.955,200.633 48.661,200.483 48.510 C 200.424 48.451,199.735 48.977,198.952 49.678 M194.505 53.666 C 190.689 57.312,187.502 60.801,183.663 65.540 C 181.866 67.757,180.301 69.610,180.185 69.658 C 180.069 69.705,179.974 69.910,179.974 70.113 C 179.974 70.315,179.876 70.481,179.756 70.481 C 179.636 70.481,179.405 70.771,179.244 71.126 C 179.082 71.480,177.977 73.089,176.787 74.702 C 174.353 78.002,173.128 79.789,172.907 80.365 C 172.825 80.580,171.836 82.168,170.709 83.895 C 169.582 85.622,168.251 87.763,167.750 88.652 C 167.250 89.541,165.801 92.048,164.532 94.224 C 163.263 96.399,161.762 99.167,161.196 100.373 C 160.631 101.580,159.118 104.527,157.836 106.923 C 156.553 109.319,155.462 111.492,155.411 111.751 C 155.361 112.011,154.710 113.511,153.965 115.085 C 152.762 117.624,151.512 120.450,150.830 122.172 C 150.599 122.755,150.607 122.757,153.192 122.757 C 155.278 122.757,155.787 122.683,155.787 122.382 C 155.787 122.176,155.899 121.938,156.036 121.853 C 156.293 121.694,155.869 123.190,155.522 123.667 C 155.418 123.810,154.783 125.215,154.111 126.788 C 153.439 128.362,152.736 130.000,152.548 130.429 C 152.247 131.115,149.711 137.140,147.055 143.478 C 146.565 144.647,146.164 145.678,146.164 145.768 C 146.164 145.858,145.946 146.423,145.679 147.023 C 145.147 148.218,142.716 154.330,141.624 157.217 C 141.245 158.218,140.832 159.272,140.705 159.558 C 139.927 161.322,139.402 162.645,139.402 162.845 C 139.402 162.971,139.180 163.571,138.909 164.177 C 138.638 164.783,137.685 167.386,136.791 169.961 C 135.897 172.536,134.948 175.133,134.683 175.733 C 134.417 176.334,134.200 176.984,134.200 177.179 C 134.200 177.374,134.038 177.755,133.840 178.026 C 133.516 178.470,133.571 178.590,134.396 179.246 C 135.746 180.319,140.182 180.378,140.182 179.324 C 140.182 178.702,140.251 178.674,141.743 178.674 C 142.956 178.674,143.303 178.587,143.303 178.283 C 143.303 177.980,142.956 177.893,141.743 177.893 C 140.529 177.893,140.182 177.807,140.182 177.503 C 140.182 177.177,140.717 177.113,143.433 177.113 C 145.427 177.113,146.684 177.013,146.684 176.853 C 146.684 176.706,147.421 176.593,148.375 176.593 L 150.065 176.593 150.065 175.423 L 150.065 174.252 151.105 174.252 C 151.678 174.252,152.146 174.135,152.146 173.992 C 152.146 173.842,152.969 173.732,154.096 173.732 L 156.047 173.732 156.047 172.952 L 156.047 172.172 157.607 172.172 C 158.474 172.172,159.168 172.056,159.168 171.912 C 159.168 171.753,160.381 171.651,162.289 171.651 L 165.410 171.651 165.410 170.481 L 165.410 169.311 167.230 169.311 C 168.999 169.311,169.051 169.292,169.051 168.661 C 169.051 168.029,169.103 168.010,170.871 168.010 C 172.316 168.010,172.692 167.930,172.692 167.620 C 172.692 167.314,173.050 167.230,174.359 167.230 L 176.026 167.230 176.553 166.125 C 176.842 165.517,177.601 163.732,178.240 162.159 C 179.793 158.332,180.213 157.314,180.494 156.697 C 180.624 156.411,181.040 155.416,181.418 154.486 C 181.795 153.557,182.261 152.445,182.454 152.016 C 182.646 151.586,183.562 149.363,184.490 147.074 C 187.616 139.365,189.353 135.114,189.592 134.590 C 189.723 134.304,190.377 132.783,191.046 131.209 C 191.714 129.636,192.463 127.880,192.710 127.308 C 192.956 126.736,193.486 125.478,193.887 124.512 L 194.616 122.757 221.105 122.757 C 235.674 122.757,247.594 122.828,247.594 122.914 C 247.594 123.001,247.331 123.400,247.009 123.801 C 241.485 130.684,231.948 147.936,226.523 160.858 C 225.922 162.289,225.225 163.927,224.973 164.499 C 224.721 165.072,224.197 166.359,223.809 167.360 C 223.421 168.362,222.879 169.657,222.605 170.238 C 221.950 171.628,221.957 171.651,223.017 171.651 C 223.922 171.651,223.927 171.645,223.927 170.481 L 223.927 169.311 225.228 169.311 C 226.441 169.311,226.528 169.267,226.528 168.661 C 226.528 168.039,226.597 168.010,228.088 168.010 C 229.302 168.010,229.649 167.924,229.649 167.620 C 229.649 167.406,229.795 167.229,229.974 167.227 C 230.153 167.225,230.613 166.552,230.997 165.731 C 234.923 157.341,238.299 150.455,240.080 147.204 C 242.394 142.982,245.581 137.508,246.477 136.219 C 246.949 135.541,247.337 134.897,247.341 134.788 C 247.345 134.679,247.842 133.922,248.446 133.105 C 249.051 132.288,249.954 131.026,250.455 130.300 C 252.250 127.699,253.770 125.745,255.947 123.241 C 256.179 122.975,256.455 122.757,256.562 122.757 C 256.855 122.757,256.073 123.885,253.586 127.048 C 251.759 129.372,248.525 134.137,246.083 138.101 C 245.715 138.699,245.717 138.723,246.106 138.405 C 246.592 138.007,249.285 133.982,249.285 133.654 C 249.285 133.535,249.490 133.198,249.740 132.905 C 249.990 132.613,250.195 132.320,250.195 132.254 C 250.195 132.189,250.559 131.618,251.004 130.987 L 251.813 129.839 255.360 131.565 C 260.511 134.070,261.670 134.745,269.181 139.616 C 275.577 143.765,279.952 147.218,285.394 152.415 L 288.214 155.107 288.051 151.243 C 287.912 147.950,287.817 147.318,287.412 146.966 C 287.150 146.739,286.847 146.144,286.738 145.643 C 286.630 145.143,286.441 144.670,286.320 144.592 C 286.198 144.514,286.066 143.906,286.027 143.241 C 285.974 142.347,285.837 142.000,285.501 141.912 C 285.215 141.836,285.046 141.540,285.046 141.117 C 285.046 140.746,284.938 140.442,284.806 140.442 C 284.674 140.442,284.490 140.091,284.395 139.662 C 284.301 139.233,284.116 138.882,283.985 138.882 C 283.853 138.882,283.745 138.531,283.745 138.101 C 283.745 137.581,283.615 137.321,283.355 137.321 C 283.075 137.321,282.965 137.035,282.965 136.309 C 282.965 135.649,282.829 135.244,282.575 135.147 C 282.328 135.052,282.185 134.653,282.185 134.061 C 282.185 133.243,282.119 133.146,281.664 133.290 C 281.366 133.385,281.144 133.337,281.144 133.177 C 281.144 133.025,280.852 132.900,280.494 132.900 C 280.113 132.900,279.844 132.751,279.844 132.539 C 279.844 132.332,279.455 132.105,278.934 132.007 C 278.389 131.905,278.023 131.684,278.023 131.458 C 278.023 131.250,277.936 131.071,277.828 131.061 C 276.084 130.901,275.604 130.672,276.210 130.289 C 276.491 130.111,276.361 130.046,275.723 130.043 C 275.074 130.040,274.819 129.907,274.718 129.519 C 274.616 129.128,274.363 128.999,273.702 128.999 C 273.093 128.999,272.822 128.878,272.822 128.609 C 272.822 128.392,272.591 128.218,272.302 128.218 C 272.013 128.218,271.782 128.045,271.782 127.828 C 271.782 127.356,271.356 127.310,271.174 127.763 C 271.097 127.953,271.034 127.895,271.022 127.622 C 271.011 127.365,270.855 127.174,270.676 127.198 C 269.992 127.286,269.701 127.164,269.701 126.788 C 269.701 126.450,268.704 126.398,262.289 126.398 C 258.212 126.398,254.877 126.310,254.878 126.203 C 254.881 125.816,259.475 120.497,261.737 118.261 C 283.786 96.464,316.917 96.796,343.658 119.081 C 346.936 121.813,348.194 122.756,348.572 122.763 C 348.749 122.767,350.299 124.123,352.016 125.776 L 355.137 128.782 355.217 127.720 L 355.296 126.658 357.752 126.658 C 359.216 126.658,360.208 126.553,360.208 126.398 C 360.208 126.255,360.105 126.138,359.980 126.138 C 359.854 126.138,359.616 125.816,359.452 125.423 C 359.288 125.029,358.805 124.311,358.380 123.827 C 357.955 123.343,357.607 122.904,357.607 122.852 C 357.607 122.799,359.760 122.757,362.390 122.757 L 367.173 122.757 368.233 125.423 C 368.816 126.889,369.816 129.610,370.456 131.469 C 371.095 133.329,371.626 134.717,371.635 134.555 C 371.644 134.392,370.843 131.817,369.855 128.833 C 361.058 102.267,344.120 75.774,325.755 59.855 L 323.162 57.607 320.102 57.477 L 317.043 57.347 319.566 59.818 L 322.089 62.289 321.123 62.369 C 320.293 62.439,320.156 62.540,320.156 63.085 L 320.156 63.719 313.524 63.719 L 306.892 63.719 306.892 64.499 L 306.892 65.280 305.137 65.288 C 303.204 65.297,303.199 65.165,305.186 66.656 C 305.607 66.972,306.825 67.932,307.894 68.791 C 308.962 69.649,310.280 70.702,310.822 71.131 C 311.364 71.560,311.867 72.053,311.938 72.225 C 312.072 72.547,310.450 71.735,309.753 71.130 C 308.478 70.025,300.626 65.848,295.709 63.659 C 295.208 63.436,294.249 63.007,293.577 62.706 C 292.906 62.405,292.280 62.159,292.186 62.159 C 292.093 62.159,291.647 61.998,291.197 61.801 C 290.489 61.491,287.452 60.533,284.915 59.819 C 284.486 59.698,283.433 59.462,282.575 59.296 C 281.717 59.129,280.833 58.899,280.611 58.785 C 280.388 58.671,279.101 58.437,277.750 58.266 C 276.398 58.095,275.012 57.818,274.668 57.651 C 273.811 57.234,260.929 57.228,260.052 57.643 C 259.709 57.806,258.323 58.083,256.973 58.257 C 255.623 58.432,254.336 58.666,254.112 58.778 C 253.729 58.971,251.469 59.542,248.922 60.090 C 248.294 60.226,247.650 60.440,247.492 60.567 C 247.334 60.694,246.795 60.884,246.294 60.988 C 245.793 61.093,245.091 61.333,244.733 61.521 C 244.376 61.709,243.381 62.174,242.523 62.554 C 237.725 64.679,232.434 67.800,228.479 70.839 C 227.620 71.498,226.567 72.299,226.138 72.620 C 225.148 73.359,217.064 81.407,215.746 82.965 C 213.342 85.808,207.274 94.327,206.669 95.709 C 206.575 95.923,206.033 96.801,205.465 97.659 C 204.896 98.518,204.240 99.659,204.008 100.195 C 203.775 100.731,203.422 101.170,203.223 101.170 C 202.818 101.170,202.728 100.503,203.101 100.272 C 203.233 100.191,203.420 99.745,203.517 99.282 C 204.230 95.864,209.871 85.068,213.332 80.496 C 213.441 80.352,213.891 79.766,214.331 79.194 L 215.132 78.153 212.055 78.080 C 210.104 78.033,208.946 78.104,208.889 78.275 C 208.830 78.450,206.509 78.544,202.189 78.544 C 196.487 78.544,195.579 78.597,195.579 78.934 C 195.579 79.228,195.897 79.324,196.879 79.324 C 197.594 79.324,198.179 79.441,198.179 79.584 C 198.179 79.743,196.966 79.844,195.059 79.844 L 191.938 79.844 191.938 80.624 L 191.938 81.404 187.386 81.404 L 182.835 81.404 182.835 82.185 L 182.835 82.965 180.342 82.965 C 178.972 82.965,177.892 82.877,177.943 82.770 C 178.297 82.028,183.042 74.659,183.344 74.382 C 183.423 74.311,183.837 73.726,184.265 73.082 C 185.715 70.902,190.099 65.243,190.571 64.942 C 190.751 64.827,190.897 64.590,190.897 64.414 C 190.897 64.239,191.102 63.916,191.352 63.697 C 191.603 63.478,192.334 62.670,192.978 61.901 C 194.106 60.553,196.262 58.138,197.204 57.166 C 197.885 56.464,197.753 56.258,197.047 56.922 C 196.489 57.446,196.213 57.490,193.928 57.422 L 191.422 57.347 194.451 54.288 C 198.203 50.499,198.237 50.100,194.505 53.666 M21.754 65.964 C 21.060 66.177,20.533 66.390,20.584 66.437 C 20.754 66.594,23.147 65.944,23.147 65.741 C 23.147 65.630,23.118 65.548,23.082 65.558 C 23.046 65.568,22.449 65.750,21.754 65.964 M32.658 70.719 C 34.319 72.735,35.967 74.618,35.150 73.566 C 34.957 73.318,34.878 72.987,34.974 72.832 C 35.071 72.676,35.029 72.581,34.883 72.620 C 34.489 72.726,32.483 70.218,32.683 69.869 C 32.776 69.705,32.757 69.658,32.640 69.764 C 32.341 70.035,31.699 69.445,31.904 69.086 C 31.997 68.924,31.977 68.877,31.860 68.983 C 31.743 69.089,31.469 69.031,31.251 68.853 C 31.033 68.676,31.666 69.515,32.658 70.719 M37.432 76.530 C 38.170 77.365,38.145 77.354,38.145 76.853 C 38.145 76.638,38.086 76.522,38.014 76.594 C 37.942 76.665,37.640 76.520,37.342 76.270 C 36.948 75.940,36.972 76.010,37.432 76.530 M215.345 77.026 C 215.345 77.336,215.378 77.541,215.418 77.482 C 215.459 77.422,215.649 77.168,215.840 76.918 C 216.138 76.528,216.128 76.463,215.767 76.463 C 215.507 76.463,215.345 76.680,215.345 77.026 M39.775 79.412 C 40.693 80.522,41.567 81.506,41.717 81.599 C 41.868 81.692,41.258 80.872,40.363 79.776 C 39.467 78.680,38.593 77.696,38.420 77.589 C 38.247 77.482,38.857 78.303,39.775 79.412 M43.173 83.566 C 43.173 83.611,43.553 83.992,44.018 84.412 L 44.863 85.176 44.100 84.330 C 43.388 83.542,43.173 83.366,43.173 83.566 M47.347 88.430 C 48.803 90.148,50.128 91.633,50.290 91.731 C 50.473 91.840,50.463 91.756,50.262 91.508 C 50.085 91.289,50.026 91.023,50.132 90.917 C 50.238 90.811,50.191 90.763,50.027 90.811 C 49.863 90.858,48.657 89.639,47.348 88.101 C 46.039 86.564,44.907 85.306,44.834 85.306 C 44.760 85.306,45.892 86.711,47.347 88.430 M52.554 94.544 C 53.719 95.906,55.196 97.574,55.836 98.250 C 56.476 98.927,55.580 97.812,53.844 95.774 C 52.108 93.735,50.631 92.068,50.562 92.068 C 50.492 92.068,51.389 93.182,52.554 94.544 M59.550 102.592 C 62.190 105.624,62.305 105.727,62.571 105.296 C 62.679 105.121,62.647 105.060,62.497 105.153 C 62.353 105.242,61.155 104.090,59.835 102.592 C 58.515 101.095,57.377 99.870,57.307 99.870 C 57.238 99.870,58.247 101.095,59.550 102.592 M63.459 107.022 C 63.944 107.523,64.400 107.932,64.471 107.932 C 64.543 107.932,64.204 107.523,63.719 107.022 C 63.234 106.521,62.778 106.112,62.707 106.112 C 62.635 106.112,62.974 106.521,63.459 107.022 M66.555 110.467 C 68.156 112.276,68.921 112.833,68.921 112.193 C 68.921 112.121,68.815 112.128,68.687 112.207 C 68.346 112.418,66.796 110.559,67.006 110.192 C 67.104 110.022,67.084 109.973,66.963 110.083 C 66.842 110.194,66.273 109.842,65.700 109.303 C 65.126 108.764,65.511 109.288,66.555 110.467 M70.977 115.410 C 73.002 117.696,76.558 121.432,75.846 120.525 C 75.613 120.227,75.510 119.887,75.617 119.768 C 75.725 119.650,75.683 119.626,75.525 119.716 C 75.176 119.916,74.115 118.837,74.004 118.169 C 73.959 117.903,73.799 117.712,73.648 117.745 C 73.251 117.832,70.997 115.176,71.186 114.844 C 71.273 114.690,71.246 114.654,71.125 114.764 C 71.004 114.874,70.494 114.581,69.990 114.114 C 69.487 113.646,69.931 114.230,70.977 115.410 M79.176 124.382 C 81.993 127.467,81.838 127.327,81.838 126.799 C 81.838 126.591,81.748 126.477,81.638 126.545 C 81.422 126.678,79.714 124.677,79.714 124.291 C 79.714 124.162,79.631 124.086,79.529 124.122 C 79.427 124.158,78.732 123.602,77.984 122.887 C 77.236 122.172,77.772 122.845,79.176 124.382 M305.215 126.626 C 305.350 126.752,306.339 127.474,307.412 128.231 C 318.528 136.073,328.309 146.775,334.258 157.607 C 335.083 159.109,335.758 160.231,335.759 160.100 C 335.760 159.969,335.293 159.009,334.720 157.967 C 334.148 156.924,333.680 156.007,333.680 155.929 C 333.680 155.851,341.988 155.787,352.142 155.787 L 370.604 155.787 371.359 157.284 C 372.222 158.993,374.424 164.230,375.298 166.651 C 375.622 167.549,375.935 168.235,375.994 168.176 C 376.053 168.117,375.552 166.622,374.881 164.853 C 369.636 151.042,361.263 137.125,352.958 128.414 L 351.036 126.398 328.002 126.398 C 314.759 126.398,305.073 126.495,305.215 126.626 M82.195 127.499 C 82.175 127.866,105.356 152.239,110.987 157.772 C 113.138 159.886,113.431 160.522,112.377 160.797 C 112.109 160.868,111.234 162.207,110.281 164.009 C 109.381 165.709,108.310 167.588,107.900 168.184 C 107.417 168.889,107.264 169.305,107.465 169.372 C 107.834 169.495,105.390 173.992,104.954 173.992 C 104.798 173.992,104.449 174.402,104.179 174.902 C 103.608 175.964,103.421 176.014,102.886 175.249 C 102.529 174.739,102.534 174.650,102.936 174.321 C 103.338 173.992,103.314 173.971,102.696 174.102 C 101.931 174.264,100.611 173.093,97.139 169.167 C 95.288 167.074,92.340 163.825,92.079 163.589 C 92.000 163.518,91.003 162.406,89.863 161.118 C 88.724 159.831,87.203 158.134,86.483 157.347 C 85.263 156.014,82.816 153.247,81.742 151.987 C 80.597 150.645,77.851 147.594,77.427 147.194 C 77.170 146.952,76.685 146.382,76.350 145.927 C 76.014 145.471,74.538 143.747,73.071 142.095 L 70.402 139.091 69.336 141.028 C 68.750 142.094,68.115 143.153,67.924 143.382 C 67.420 143.987,67.746 144.815,69.060 146.258 C 69.208 146.421,69.683 147.081,70.115 147.724 C 70.547 148.368,71.353 149.538,71.905 150.325 C 72.458 151.112,73.153 152.103,73.451 152.528 C 73.943 153.230,75.651 155.539,76.151 156.177 C 76.263 156.320,76.753 157.022,77.239 157.737 C 77.726 158.453,78.979 160.183,80.024 161.582 C 81.069 162.982,81.925 164.240,81.925 164.378 C 81.925 164.516,82.022 164.629,82.141 164.629 C 82.259 164.629,82.751 165.185,83.233 165.865 C 84.411 167.525,91.077 176.437,94.254 180.598 L 96.815 183.953 96.254 185.108 C 95.945 185.743,95.228 186.977,94.661 187.850 C 93.920 188.991,93.719 189.492,93.947 189.633 C 94.258 189.826,95.591 187.891,96.706 185.630 C 97.176 184.675,97.197 184.665,97.643 185.157 C 98.081 185.642,98.043 185.759,96.624 188.287 L 95.150 190.914 95.689 191.751 C 95.986 192.211,96.433 192.925,96.684 193.336 C 96.934 193.748,97.982 195.062,99.013 196.257 C 100.043 197.452,101.385 199.105,101.994 199.930 C 102.603 200.755,103.815 202.250,104.688 203.251 C 105.561 204.252,107.087 206.066,108.079 207.282 C 112.402 212.578,126.798 228.877,131.404 233.690 C 134.112 236.519,133.963 236.604,131.150 233.835 C 129.444 232.154,128.858 231.712,128.790 232.055 C 128.735 232.333,128.464 232.510,128.090 232.510 C 127.623 232.510,127.439 232.693,127.308 233.290 C 127.204 233.763,126.966 234.078,126.702 234.091 C 126.432 234.104,126.391 234.161,126.593 234.242 C 126.979 234.398,127.032 235.111,126.658 235.111 C 126.515 235.111,126.386 235.374,126.372 235.696 C 126.347 236.257,126.338 236.254,126.138 235.631 C 125.938 235.007,125.929 235.004,125.904 235.566 C 125.889 235.888,125.761 236.151,125.618 236.151 C 125.475 236.151,125.358 236.314,125.358 236.513 C 125.358 236.954,123.962 238.492,123.563 238.492 C 123.406 238.492,123.277 238.843,123.277 239.272 C 123.277 239.701,123.160 240.052,123.017 240.052 C 122.874 240.052,122.757 240.286,122.757 240.572 C 122.757 241.083,122.583 241.092,112.886 241.092 L 103.016 241.092 103.365 239.987 C 103.557 239.379,104.372 237.079,105.176 234.875 C 105.980 232.672,106.594 230.825,106.541 230.772 C 106.439 230.670,102.544 240.414,102.415 241.092 C 102.374 241.307,102.259 241.544,102.160 241.619 C 102.060 241.694,101.916 242.104,101.840 242.529 C 101.763 242.955,100.469 246.375,98.965 250.129 C 97.460 253.883,96.229 257.075,96.229 257.222 C 96.229 257.368,94.941 260.766,93.368 264.771 C 91.795 268.777,90.507 272.179,90.507 272.332 C 90.507 272.485,89.795 274.443,88.924 276.683 C 87.350 280.728,84.265 289.407,84.265 289.788 C 84.265 289.897,93.811 289.987,105.478 289.987 L 126.691 289.987 127.483 288.231 C 127.919 287.266,128.380 286.437,128.507 286.389 C 128.634 286.342,128.739 286.128,128.739 285.916 C 128.739 285.703,128.914 285.353,129.129 285.138 C 129.367 284.900,129.519 284.864,129.519 285.046 C 129.519 285.624,130.306 284.555,130.465 283.760 C 130.613 283.023,130.705 282.965,131.729 282.965 L 132.833 282.965 133.024 281.599 C 133.173 280.535,133.262 280.349,133.429 280.754 C 133.612 281.197,133.646 281.207,133.662 280.819 C 133.672 280.569,133.797 280.364,133.940 280.364 C 134.083 280.364,134.200 280.130,134.200 279.844 C 134.200 279.497,134.374 279.324,134.720 279.324 C 135.099 279.324,135.241 279.150,135.241 278.689 C 135.241 278.340,135.358 277.982,135.501 277.893 C 135.644 277.805,135.761 277.447,135.761 277.098 C 135.761 276.749,135.859 276.463,135.979 276.463 C 136.274 276.463,136.810 273.992,136.898 272.225 C 136.946 271.287,137.127 270.639,137.425 270.341 C 137.721 270.044,137.826 269.673,137.725 269.273 C 137.641 268.936,137.665 268.661,137.781 268.661 C 138.370 268.661,138.674 263.678,138.120 263.089 L 137.580 262.514 138.231 260.651 C 138.589 259.626,138.882 258.330,138.882 257.770 C 138.882 257.106,139.017 256.701,139.272 256.603 C 139.515 256.510,139.662 256.113,139.662 255.553 C 139.662 255.058,139.840 254.476,140.057 254.259 C 140.606 253.709,140.684 246.620,140.145 246.242 C 139.871 246.049,139.864 245.965,140.117 245.862 C 140.296 245.790,140.442 245.379,140.442 244.950 L 140.442 244.170 141.537 245.036 C 142.139 245.513,145.562 248.761,149.144 252.255 C 161.838 264.634,175.484 276.763,184.860 284.001 C 186.877 285.558,187.007 285.716,186.875 286.461 C 186.741 287.213,186.748 287.222,187.008 286.612 C 187.294 285.941,187.144 284.785,186.771 284.785 C 186.652 284.785,186.278 284.544,185.938 284.250 L 185.320 283.714 186.223 282.026 C 186.720 281.097,187.322 280.124,187.561 279.863 C 188.051 279.329,187.749 278.976,184.525 276.320 C 182.879 274.962,182.289 274.456,179.962 272.404 C 179.169 271.704,177.840 270.546,177.010 269.831 C 176.179 269.116,175.005 268.062,174.399 267.490 C 173.794 266.918,171.370 264.638,169.013 262.424 L 164.726 258.398 166.889 254.560 C 168.078 252.450,169.051 250.658,169.051 250.578 C 169.051 250.498,169.490 249.668,170.026 248.734 L 171.001 247.037 171.131 250.761 C 171.203 252.810,171.369 254.486,171.500 254.486 C 171.723 254.486,173.144 252.251,174.780 249.327 L 175.484 248.070 173.113 245.725 C 171.808 244.435,170.507 243.183,170.221 242.943 C 169.283 242.154,164.230 236.847,164.629 237.070 C 164.960 237.254,166.958 238.907,168.550 240.312 C 168.793 240.527,169.555 241.170,170.243 241.743 C 170.931 242.315,172.030 243.251,172.686 243.823 C 173.341 244.395,174.388 245.273,175.012 245.774 C 175.636 246.274,177.219 247.562,178.531 248.635 C 179.843 249.707,181.310 250.878,181.790 251.235 C 182.271 251.593,183.493 252.575,184.505 253.417 C 185.518 254.259,186.638 255.131,186.996 255.356 C 187.354 255.580,188.004 256.062,188.441 256.426 C 188.878 256.789,189.580 257.346,190.001 257.662 C 191.543 258.819,191.844 259.050,193.819 260.590 C 194.926 261.453,195.902 262.159,195.989 262.159 C 196.076 262.159,196.444 262.393,196.808 262.679 C 197.172 262.965,197.600 263.195,197.759 263.191 C 197.919 263.186,197.833 263.018,197.568 262.818 C 196.814 262.247,197.308 261.880,198.726 261.958 C 199.958 262.026,200.036 261.989,200.514 261.118 C 202.760 257.032,205.899 251.438,206.425 250.585 C 209.287 245.938,211.520 241.352,210.920 241.352 C 210.402 241.352,208.848 240.176,208.961 239.870 C 209.031 239.682,208.923 239.617,208.690 239.707 C 208.291 239.860,207.212 239.076,207.400 238.771 C 207.459 238.677,207.279 238.582,207.001 238.562 C 206.481 238.522,205.655 237.864,205.864 237.656 C 205.929 237.591,205.834 237.538,205.653 237.538 C 205.195 237.538,199.452 233.590,192.328 228.379 C 178.963 218.604,168.703 210.341,151.779 195.723 C 141.835 187.134,127.065 173.345,127.338 172.904 C 127.414 172.780,127.322 172.711,127.132 172.750 C 126.943 172.790,126.820 172.667,126.859 172.477 C 126.899 172.288,126.827 172.197,126.701 172.275 C 126.574 172.353,125.945 171.865,125.303 171.189 C 124.661 170.514,123.387 169.264,122.471 168.412 C 121.555 167.559,120.838 166.761,120.878 166.637 C 120.917 166.513,120.842 166.477,120.712 166.558 C 120.582 166.638,120.330 166.530,120.154 166.317 C 119.977 166.104,119.919 165.930,120.026 165.930 C 120.133 165.930,120.075 165.756,119.898 165.543 C 119.722 165.330,119.495 165.206,119.395 165.268 C 119.295 165.330,115.710 161.876,111.429 157.593 C 107.147 153.309,103.756 149.805,103.892 149.805 C 104.028 149.805,103.629 149.284,103.004 148.648 C 102.380 148.012,101.741 147.515,101.585 147.543 C 101.428 147.571,101.333 147.439,101.372 147.250 C 101.411 147.060,101.343 146.967,101.221 147.043 C 101.018 147.168,94.804 140.800,94.794 140.458 C 94.785 140.125,94.358 139.663,94.167 139.780 C 93.956 139.911,90.568 136.287,90.612 135.977 C 90.655 135.678,89.402 134.470,89.188 134.602 C 88.936 134.758,86.216 131.704,86.216 131.266 C 86.216 131.092,86.061 130.949,85.871 130.949 C 85.681 130.949,84.779 130.130,83.866 129.129 C 82.952 128.127,82.201 127.394,82.195 127.499 M371.912 135.860 C 371.912 135.963,372.437 138.001,373.080 140.390 C 374.296 144.911,375.928 151.912,376.222 153.872 C 376.315 154.496,376.498 155.007,376.627 155.007 C 376.757 155.007,376.805 154.743,376.734 154.421 C 374.486 144.224,371.912 134.314,371.912 135.860 M102.861 148.765 C 103.420 149.337,103.818 149.805,103.747 149.805 C 103.675 149.805,103.159 149.337,102.601 148.765 C 102.042 148.192,101.643 147.724,101.715 147.724 C 101.787 147.724,102.302 148.192,102.861 148.765 M379.265 175.553 C 379.265 176.196,379.315 176.460,379.377 176.138 C 379.439 175.816,379.439 175.289,379.377 174.967 C 379.315 174.646,379.265 174.909,379.265 175.553 M379.367 178.459 C 379.285 178.770,379.327 179.209,379.458 179.434 C 379.635 179.737,379.700 179.589,379.706 178.869 C 379.715 177.772,379.587 177.617,379.367 178.459 M342.140 210.057 C 340.894 218.363,335.125 231.073,328.200 240.767 L 326.667 242.913 345.008 242.913 L 363.348 242.913 362.323 244.408 C 355.445 254.441,341.346 265.016,328.270 269.951 C 318.633 273.588,311.672 274.774,300.000 274.768 C 290.227 274.763,285.099 274.144,276.107 271.882 C 274.695 271.527,273.492 271.285,273.432 271.345 C 273.289 271.487,278.138 272.698,282.035 273.493 C 283.741 273.841,285.188 274.178,285.252 274.242 C 285.315 274.305,283.883 277.025,282.068 280.287 C 280.254 283.548,278.520 286.684,278.217 287.256 C 277.913 287.828,277.344 288.823,276.953 289.467 C 276.064 290.931,273.086 296.202,272.207 297.868 C 271.420 299.359,271.224 299.252,275.423 299.624 C 283.020 300.297,292.581 299.991,297.009 298.935 C 297.367 298.849,298.304 298.679,299.093 298.557 C 300.423 298.350,304.528 297.449,305.722 297.102 C 306.577 296.853,305.825 297.409,304.811 297.774 C 304.311 297.954,303.667 298.195,303.381 298.309 C 297.036 300.834,288.025 302.436,279.194 302.611 L 273.732 302.719 272.005 305.911 C 271.055 307.666,270.170 309.220,270.038 309.364 C 269.907 309.508,268.896 311.263,267.791 313.265 C 266.687 315.267,265.618 317.198,265.416 317.555 C 265.173 317.987,264.848 318.190,264.449 318.160 C 264.119 318.134,263.293 318.084,262.614 318.048 C 261.934 318.012,261.378 317.903,261.378 317.805 C 261.378 317.707,261.075 317.685,260.704 317.756 C 260.305 317.833,260.151 317.960,260.326 318.068 C 260.530 318.194,260.334 318.805,259.698 320.025 C 259.189 321.001,258.804 321.814,258.840 321.831 C 259.916 322.354,262.707 322.903,266.840 323.405 C 305.416 328.090,342.974 305.152,363.176 264.568 C 365.441 260.017,365.358 259.820,363.038 264.239 C 355.990 277.660,349.938 286.219,341.266 295.028 C 337.702 298.647,332.156 303.543,332.686 302.601 C 332.767 302.458,333.682 300.835,334.719 298.995 C 336.093 296.558,336.517 295.595,336.281 295.448 C 335.942 295.239,335.897 295.335,338.607 290.583 C 339.600 288.841,340.615 287.389,341.937 285.818 C 343.121 284.410,344.575 282.467,344.886 281.876 C 345.736 280.258,347.515 277.192,348.116 276.305 C 348.473 275.780,348.765 275.054,348.765 274.693 C 348.765 274.332,349.409 272.829,350.197 271.354 L 351.629 268.671 350.977 268.508 C 350.619 268.418,350.325 268.313,350.325 268.275 C 350.325 268.125,351.735 265.661,351.891 265.540 C 352.078 265.393,354.312 261.404,356.187 257.867 C 356.869 256.580,358.094 254.415,358.910 253.056 C 359.725 251.697,360.895 249.649,361.511 248.505 C 364.406 243.123,366.419 239.688,368.218 237.061 C 370.256 234.086,371.415 232.008,374.821 225.228 C 376.076 222.728,376.786 221.542,376.689 222.107 C 374.604 234.250,371.073 246.095,366.076 257.710 C 365.560 258.910,365.182 259.937,365.237 259.992 C 365.351 260.106,367.279 255.835,368.610 252.520 C 370.773 247.136,375.256 232.469,375.958 228.479 C 376.201 227.100,376.226 226.959,376.965 222.887 C 377.315 220.956,377.667 218.732,377.747 217.945 C 377.826 217.159,377.957 216.047,378.037 215.475 C 378.117 214.902,378.221 213.703,378.267 212.809 L 378.351 211.183 360.339 211.183 L 342.327 211.183 342.458 210.013 C 342.633 208.467,342.373 208.502,342.140 210.057 M110.078 221.131 C 109.798 221.896,109.805 221.928,110.151 221.472 C 110.482 221.035,110.677 220.286,110.460 220.286 C 110.420 220.286,110.248 220.666,110.078 221.131 M109.125 223.511 C 108.521 224.878,108.345 225.383,108.050 226.593 C 107.781 227.699,108.403 226.437,109.220 224.221 C 110.107 221.816,110.053 221.413,109.125 223.511 M271.912 271.001 C 272.198 271.124,272.607 271.225,272.822 271.225 C 273.068 271.225,273.020 271.142,272.692 271.001 C 272.406 270.878,271.996 270.778,271.782 270.778 C 271.536 270.778,271.584 270.860,271.912 271.001 M187.700 286.005 C 187.576 286.202,187.954 286.608,188.746 287.128 C 189.720 287.768,189.819 287.800,189.207 287.276 C 188.778 286.909,188.347 286.608,188.251 286.607 C 188.154 286.607,188.034 286.401,187.984 286.151 C 187.922 285.836,187.834 285.791,187.700 286.005 M181.050 303.807 C 180.460 305.267,180.019 306.504,180.070 306.555 C 180.121 306.606,180.655 305.462,181.256 304.013 C 181.858 302.564,182.299 301.328,182.237 301.266 C 182.174 301.203,181.640 302.347,181.050 303.807 M174.435 316.450 C 173.577 317.664,173.467 317.893,174.078 317.194 C 174.899 316.256,175.949 314.694,175.759 314.694 C 175.714 314.694,175.118 315.484,174.435 316.450 M169.181 322.432 C 167.893 323.671,167.308 324.319,167.880 323.871 C 168.908 323.067,171.877 320.145,171.643 320.168 C 171.576 320.174,170.468 321.193,169.181 322.432 M160.468 328.479 C 159.681 328.894,159.129 329.240,159.241 329.247 C 159.518 329.263,162.029 327.982,162.029 327.824 C 162.029 327.650,162.065 327.635,160.468 328.479 M156.177 330.208 C 154.889 330.693,154.187 331.024,154.616 330.943 C 155.515 330.773,158.908 329.526,158.908 329.366 C 158.908 329.196,158.657 329.273,156.177 330.208 M142.981 332.824 C 143.304 332.886,143.773 332.884,144.021 332.818 C 144.270 332.753,144.005 332.702,143.433 332.705 C 142.861 332.708,142.657 332.762,142.981 332.824 " stroke="none" fill="#e170a9" fill-rule="evenodd"></path><path id="path1" d="M279.844 117.143 C 279.844 117.819,279.978 118.347,280.169 118.424 C 280.418 118.525,280.409 118.616,280.127 118.812 C 279.815 119.030,279.825 119.134,280.192 119.501 C 280.430 119.739,280.624 120.266,280.624 120.673 C 280.624 121.080,280.770 121.472,280.949 121.545 C 281.194 121.644,281.178 121.746,280.884 121.957 C 280.537 122.206,280.537 122.266,280.884 122.497 C 281.231 122.728,281.231 122.785,280.884 123.013 C 280.623 123.184,280.602 123.270,280.819 123.273 C 281.004 123.275,281.144 123.604,281.144 124.036 C 281.144 124.453,280.998 124.862,280.819 124.946 C 280.559 125.067,280.559 125.128,280.819 125.249 C 280.998 125.333,281.144 125.557,281.144 125.748 C 281.144 125.938,280.998 126.154,280.819 126.226 C 280.559 126.331,280.559 126.361,280.819 126.377 C 281.044 126.392,281.144 126.920,281.144 128.088 C 281.144 129.042,281.258 129.779,281.404 129.779 C 281.547 129.779,281.664 130.072,281.664 130.429 C 281.664 130.787,281.782 131.079,281.925 131.079 C 282.075 131.079,282.185 131.906,282.185 133.038 C 282.185 134.539,282.276 135.032,282.575 135.147 C 282.829 135.244,282.965 135.649,282.965 136.309 C 282.965 137.035,283.075 137.321,283.355 137.321 C 283.615 137.321,283.745 137.581,283.745 138.101 C 283.745 138.531,283.853 138.882,283.985 138.882 C 284.116 138.882,284.301 139.233,284.395 139.662 C 284.490 140.091,284.674 140.442,284.806 140.442 C 284.938 140.442,285.046 140.746,285.046 141.117 C 285.046 141.540,285.215 141.836,285.501 141.912 C 285.837 142.000,285.974 142.347,286.027 143.241 C 286.066 143.906,286.198 144.514,286.320 144.592 C 286.441 144.670,286.628 145.136,286.735 145.629 C 287.081 147.220,288.687 147.743,288.687 146.264 C 288.687 145.886,288.839 145.644,289.077 145.644 C 289.293 145.644,289.467 145.413,289.467 145.124 C 289.467 144.837,289.584 144.603,289.727 144.603 C 289.870 144.603,289.987 144.428,289.987 144.213 C 289.987 143.999,290.095 143.823,290.226 143.823 C 290.358 143.823,290.544 143.466,290.640 143.029 C 290.737 142.589,290.949 142.284,291.116 142.344 C 291.611 142.522,292.328 142.020,292.328 141.495 C 292.328 141.226,292.474 140.947,292.653 140.874 C 292.901 140.774,292.896 140.738,292.634 140.723 C 292.211 140.697,292.904 139.922,293.349 139.922 C 293.792 139.922,293.672 139.189,293.215 139.096 C 292.861 139.024,292.880 138.921,293.345 138.387 C 293.644 138.043,293.888 137.546,293.888 137.281 C 293.888 137.017,294.014 136.801,294.167 136.801 C 294.730 136.801,295.709 135.318,295.709 134.464 C 295.709 134.124,295.881 133.940,296.201 133.940 C 296.515 133.940,296.755 133.693,296.864 133.259 C 296.958 132.884,297.205 132.407,297.412 132.200 C 297.620 131.992,297.789 131.597,297.789 131.321 C 297.789 131.045,297.965 130.819,298.179 130.819 C 298.394 130.819,298.570 130.644,298.570 130.429 C 298.570 130.215,298.716 130.037,298.895 130.035 C 299.115 130.032,299.094 129.942,298.830 129.755 C 298.536 129.548,298.520 129.447,298.765 129.347 C 298.943 129.275,299.090 128.933,299.090 128.587 C 299.090 128.210,299.241 127.958,299.468 127.958 C 299.695 127.958,299.915 127.593,300.017 127.048 C 300.115 126.527,300.342 126.138,300.549 126.138 C 300.762 126.138,300.910 125.869,300.910 125.484 L 300.910 124.830 302.471 125.618 C 304.642 126.714,304.419 126.414,302.016 125.006 C 295.960 121.459,282.628 115.995,280.027 115.995 C 279.926 115.995,279.844 116.512,279.844 117.143 M305.202 127.105 C 305.612 127.519,309.493 130.070,309.493 129.925 C 309.493 129.853,308.644 129.227,307.607 128.532 C 305.462 127.096,304.811 126.710,305.202 127.105 M295.492 236.244 C 294.586 237.444,293.503 238.678,293.086 238.987 C 292.669 239.295,292.328 239.698,292.328 239.883 C 292.328 240.067,292.064 240.467,291.743 240.770 C 291.421 241.074,290.748 241.803,290.247 242.391 C 289.746 242.979,289.015 243.765,288.622 244.139 C 288.228 244.513,287.906 244.901,287.906 245.001 C 287.906 245.233,282.838 250.159,280.886 251.823 C 280.236 252.378,280.110 252.620,280.334 252.889 C 280.698 253.328,280.486 260.167,280.104 260.295 C 279.723 260.422,279.783 261.898,280.169 261.903 C 280.420 261.906,280.417 261.955,280.157 262.120 C 279.961 262.245,279.756 263.110,279.665 264.197 C 279.579 265.221,279.408 266.060,279.286 266.060 C 279.164 266.060,279.064 266.411,279.064 266.840 C 279.064 267.269,279.181 267.620,279.324 267.620 C 279.467 267.620,279.584 267.796,279.584 268.010 C 279.584 268.225,279.467 268.401,279.324 268.401 C 279.181 268.401,279.064 268.919,279.064 269.552 C 279.064 270.253,278.904 270.864,278.655 271.113 C 278.430 271.338,278.372 271.521,278.525 271.521 C 278.678 271.521,278.804 271.686,278.804 271.886 C 278.804 272.822,280.270 272.830,283.263 271.911 C 297.213 267.628,309.480 260.308,319.655 250.195 C 323.443 246.430,323.444 246.429,320.047 249.682 C 316.114 253.448,314.833 254.543,310.964 257.444 C 307.861 259.770,307.672 259.854,307.672 258.908 C 307.672 258.503,307.525 258.257,307.282 258.257 C 307.039 258.257,306.892 258.012,306.892 257.607 C 306.892 257.250,306.775 256.957,306.632 256.957 C 306.489 256.957,306.372 256.372,306.372 255.657 C 306.372 254.674,306.277 254.356,305.982 254.356 C 305.725 254.356,305.592 254.100,305.592 253.606 C 305.592 253.075,305.440 252.817,305.072 252.720 C 304.726 252.630,304.551 252.366,304.551 251.932 C 304.551 251.573,304.412 251.232,304.242 251.176 C 304.068 251.118,303.914 250.517,303.890 249.801 C 303.866 249.102,303.713 248.485,303.549 248.431 C 303.385 248.376,303.251 248.107,303.251 247.833 C 303.251 247.559,303.089 247.334,302.891 247.334 C 302.649 247.334,302.472 246.863,302.352 245.904 C 302.175 244.488,301.840 244.048,301.610 244.928 C 301.517 245.284,301.484 245.260,301.461 244.820 C 301.444 244.510,301.284 244.197,301.105 244.125 C 300.861 244.025,300.877 243.925,301.170 243.717 C 301.435 243.530,301.456 243.440,301.235 243.437 C 301.048 243.435,300.910 243.101,300.910 242.653 C 300.910 242.133,300.780 241.873,300.520 241.873 C 300.281 241.873,300.130 241.629,300.130 241.244 C 300.130 240.346,299.871 239.792,299.452 239.792 C 299.253 239.792,299.090 239.675,299.090 239.532 C 299.090 239.389,299.295 239.270,299.545 239.268 C 299.935 239.264,299.944 239.227,299.610 239.008 C 299.263 238.780,299.263 238.723,299.610 238.496 C 299.944 238.276,299.935 238.239,299.545 238.235 C 299.264 238.233,299.090 238.032,299.090 237.711 C 299.090 237.425,298.973 237.191,298.830 237.191 C 298.687 237.191,298.570 237.016,298.570 236.801 C 298.570 236.586,298.394 236.411,298.179 236.411 C 297.925 236.411,297.789 236.156,297.789 235.680 C 297.789 233.794,297.239 233.929,295.492 236.244 M326.238 242.836 C 325.687 243.509,325.372 243.975,325.538 243.872 C 325.892 243.654,327.539 241.612,327.361 241.612 C 327.295 241.612,326.790 242.163,326.238 242.836 M324.303 245.189 L 323.407 246.164 324.382 245.268 C 325.290 244.433,325.477 244.213,325.279 244.213 C 325.235 244.213,324.796 244.652,324.303 245.189 M139.820 254.508 C 139.733 254.734,139.662 255.255,139.662 255.665 C 139.662 256.075,139.502 256.505,139.307 256.619 C 139.110 256.735,138.896 257.436,138.825 258.198 C 138.754 258.952,138.733 259.533,138.777 259.489 C 138.965 259.301,140.442 254.881,140.442 254.507 C 140.442 253.975,140.024 253.976,139.820 254.508 M138.403 265.505 C 138.237 266.509,138.101 267.630,138.101 267.995 C 138.101 268.361,137.982 268.661,137.836 268.661 C 137.688 268.661,137.639 268.930,137.725 269.273 C 137.825 269.673,137.721 270.044,137.425 270.340 C 137.119 270.646,136.946 271.301,136.891 272.357 C 136.846 273.217,136.691 274.347,136.546 274.867 C 136.402 275.387,136.283 276.209,136.282 276.694 C 136.282 277.179,136.111 277.706,135.904 277.865 C 135.594 278.101,135.516 279.347,135.468 284.785 C 135.406 291.739,134.852 299.069,134.360 299.435 C 134.151 299.589,134.161 299.687,134.395 299.781 C 134.780 299.937,134.839 301.691,134.460 301.691 C 134.317 301.691,134.200 301.866,134.200 302.081 C 134.200 302.295,134.347 302.473,134.525 302.475 C 134.781 302.478,134.782 302.522,134.531 302.682 C 134.317 302.818,134.180 303.917,134.115 306.020 C 134.062 307.744,133.955 309.260,133.876 309.389 C 133.796 309.518,133.661 311.086,133.574 312.874 C 133.486 314.662,133.367 316.476,133.309 316.905 C 133.250 317.334,133.123 318.739,133.026 320.026 C 132.929 321.313,132.715 322.463,132.550 322.582 C 132.326 322.741,132.333 322.830,132.575 322.928 C 133.024 323.111,132.983 324.271,132.510 324.745 C 132.261 324.993,132.120 325.634,132.120 326.508 L 132.120 327.882 136.216 328.059 C 153.436 328.806,163.889 323.198,171.511 309.122 C 172.714 306.900,175.116 301.427,174.958 301.269 C 174.906 301.218,174.474 302.081,173.997 303.188 C 172.622 306.377,169.931 311.601,169.040 312.809 L 168.225 313.914 161.509 313.914 L 154.792 313.914 154.625 312.809 C 154.316 310.758,154.186 310.273,153.946 310.273 C 153.814 310.273,153.706 310.098,153.706 309.883 C 153.706 309.668,153.884 309.493,154.101 309.493 C 154.520 309.493,154.379 308.216,153.927 307.917 C 153.806 307.838,153.663 307.428,153.608 307.007 C 153.552 306.586,153.377 305.912,153.217 305.510 C 153.057 305.107,152.926 304.434,152.926 304.014 C 152.926 303.594,152.809 303.251,152.666 303.251 C 152.523 303.251,152.394 302.637,152.380 301.886 C 152.360 300.863,152.306 300.684,152.164 301.170 C 152.034 301.617,151.912 301.028,151.776 299.285 C 151.666 297.890,151.471 296.749,151.341 296.749 C 151.211 296.749,151.105 296.222,151.105 295.579 C 151.105 294.935,150.988 294.408,150.845 294.408 C 150.702 294.408,150.584 293.969,150.582 293.433 C 150.580 292.897,150.406 291.814,150.195 291.027 C 149.984 290.241,149.810 289.275,149.808 288.882 C 149.806 288.488,149.688 288.166,149.545 288.166 C 149.402 288.166,149.285 287.523,149.285 286.736 C 149.285 285.668,149.190 285.306,148.912 285.306 C 148.463 285.306,148.324 284.876,148.117 282.835 C 147.808 279.803,147.694 279.324,147.278 279.324 C 146.946 279.324,146.908 279.094,147.055 277.983 C 147.170 277.116,147.133 276.580,146.952 276.468 C 146.797 276.372,146.599 275.688,146.511 274.948 C 146.423 274.208,146.251 273.602,146.128 273.602 C 146.005 273.602,145.904 273.368,145.904 273.082 C 145.904 272.796,145.795 272.562,145.662 272.562 C 145.529 272.562,145.292 271.942,145.135 271.185 C 144.869 269.904,144.634 269.594,141.777 266.744 L 138.704 263.680 138.403 265.505 M186.364 287.275 C 186.269 287.656,186.241 288.018,186.302 288.079 C 186.363 288.141,186.492 287.879,186.587 287.498 C 186.683 287.117,186.711 286.755,186.650 286.693 C 186.589 286.632,186.460 286.894,186.364 287.275 M185.719 289.490 C 185.543 290.078,185.447 290.606,185.506 290.664 C 185.564 290.723,185.756 290.290,185.932 289.703 C 186.108 289.116,186.204 288.588,186.146 288.530 C 186.087 288.471,185.895 288.903,185.719 289.490 M184.939 292.091 C 184.763 292.678,184.667 293.206,184.726 293.265 C 184.784 293.323,184.976 292.891,185.152 292.304 C 185.328 291.717,185.424 291.189,185.365 291.130 C 185.307 291.072,185.115 291.504,184.939 292.091 M176.374 297.332 C 176.208 297.498,176.076 297.756,176.081 297.906 C 176.085 298.057,176.210 297.971,176.358 297.716 C 176.607 297.289,176.707 297.316,177.651 298.063 C 178.213 298.509,178.674 298.815,178.674 298.743 C 178.674 298.303,176.647 297.059,176.374 297.332 M178.934 298.936 C 178.934 299.004,179.620 299.587,180.458 300.232 L 181.983 301.405 182.288 300.734 C 182.457 300.365,182.531 300.000,182.454 299.923 C 182.378 299.846,182.313 299.891,182.311 300.022 C 182.294 301.005,181.798 300.975,180.385 299.908 C 179.587 299.306,178.934 298.868,178.934 298.936 " stroke="none" fill="#c04454" fill-rule="evenodd"></path><path id="path2" d="M300.910 125.484 C 300.910 125.869,300.762 126.138,300.549 126.138 C 300.342 126.138,300.115 126.527,300.017 127.048 C 299.915 127.593,299.695 127.958,299.468 127.958 C 299.241 127.958,299.090 128.210,299.090 128.587 C 299.090 128.933,298.943 129.275,298.765 129.347 C 298.520 129.447,298.536 129.548,298.830 129.755 C 299.094 129.942,299.115 130.032,298.895 130.035 C 298.716 130.037,298.570 130.215,298.570 130.429 C 298.570 130.644,298.394 130.819,298.179 130.819 C 297.965 130.819,297.789 131.045,297.789 131.321 C 297.789 131.597,297.620 131.992,297.412 132.200 C 297.205 132.407,296.958 132.884,296.864 133.259 C 296.755 133.693,296.515 133.940,296.201 133.940 C 295.881 133.940,295.709 134.124,295.709 134.464 C 295.709 135.318,294.730 136.801,294.167 136.801 C 294.014 136.801,293.888 137.017,293.888 137.281 C 293.888 137.546,293.644 138.043,293.345 138.387 C 292.880 138.921,292.861 139.024,293.215 139.096 C 293.672 139.189,293.792 139.922,293.349 139.922 C 292.859 139.922,292.284 140.641,292.655 140.791 C 292.911 140.894,292.910 140.926,292.653 140.942 C 292.474 140.953,292.328 141.192,292.328 141.473 C 292.328 142.016,291.619 142.525,291.116 142.344 C 290.949 142.284,290.737 142.589,290.640 143.029 C 290.544 143.466,290.358 143.823,290.226 143.823 C 290.095 143.823,289.987 143.999,289.987 144.213 C 289.987 144.428,289.870 144.603,289.727 144.603 C 289.584 144.603,289.467 144.837,289.467 145.124 C 289.467 145.413,289.293 145.644,289.077 145.644 C 288.834 145.644,288.687 145.889,288.687 146.294 C 288.687 146.709,288.540 146.944,288.281 146.944 C 287.924 146.944,287.896 147.431,288.043 151.024 L 288.210 155.103 285.393 152.407 C 280.644 147.862,271.854 140.912,270.048 140.274 C 269.346 140.026,269.664 140.294,273.862 143.487 C 280.749 148.724,288.014 155.757,291.674 160.728 C 304.281 177.855,308.454 193.117,305.466 211.173 C 304.491 217.068,299.406 230.880,298.011 231.426 C 297.889 231.474,297.787 231.649,297.784 231.816 C 297.778 232.187,296.876 233.580,294.738 236.522 C 292.583 239.486,293.097 239.393,295.361 236.409 C 297.243 233.930,297.789 233.766,297.789 235.680 C 297.789 236.156,297.925 236.411,298.179 236.411 C 298.394 236.411,298.570 236.586,298.570 236.801 C 298.570 237.016,298.687 237.191,298.830 237.191 C 298.973 237.191,299.090 237.425,299.090 237.711 C 299.090 238.032,299.264 238.233,299.545 238.235 C 299.935 238.239,299.944 238.276,299.610 238.496 C 299.263 238.723,299.263 238.780,299.610 239.008 C 299.944 239.227,299.935 239.264,299.545 239.268 C 299.295 239.270,299.090 239.389,299.090 239.532 C 299.090 239.675,299.253 239.792,299.452 239.792 C 299.871 239.792,300.130 240.346,300.130 241.244 C 300.130 241.629,300.281 241.873,300.520 241.873 C 300.780 241.873,300.910 242.133,300.910 242.653 C 300.910 243.101,301.048 243.435,301.235 243.437 C 301.456 243.440,301.435 243.530,301.170 243.717 C 300.877 243.925,300.861 244.025,301.105 244.125 C 301.284 244.197,301.444 244.510,301.461 244.820 C 301.484 245.260,301.517 245.284,301.610 244.928 C 301.840 244.048,302.175 244.488,302.352 245.904 C 302.472 246.863,302.649 247.334,302.891 247.334 C 303.089 247.334,303.251 247.559,303.251 247.833 C 303.251 248.107,303.385 248.376,303.549 248.431 C 303.713 248.485,303.866 249.102,303.890 249.801 C 303.914 250.517,304.068 251.118,304.242 251.176 C 304.412 251.232,304.551 251.573,304.551 251.932 C 304.551 252.366,304.726 252.630,305.072 252.720 C 305.440 252.817,305.592 253.075,305.592 253.606 C 305.592 254.100,305.725 254.356,305.982 254.356 C 306.277 254.356,306.372 254.674,306.372 255.657 C 306.372 256.372,306.489 256.957,306.632 256.957 C 306.775 256.957,306.892 257.250,306.892 257.607 C 306.892 258.012,307.039 258.257,307.282 258.257 C 307.525 258.257,307.672 258.503,307.672 258.908 C 307.672 259.861,307.841 259.781,311.285 257.196 C 352.802 226.039,354.813 168.445,315.558 134.843 C 311.732 131.568,305.358 127.067,302.536 125.648 L 300.910 124.830 300.910 125.484 M140.442 244.950 C 140.442 245.379,140.296 245.790,140.117 245.862 C 139.865 245.965,139.871 246.050,140.146 246.242 C 140.422 246.436,140.494 247.423,140.471 250.732 L 140.442 254.974 139.142 258.542 C 138.427 260.505,137.841 262.251,137.841 262.422 C 137.841 262.594,139.417 264.335,141.343 266.292 C 144.589 269.590,144.866 269.949,145.136 271.206 C 145.296 271.952,145.534 272.562,145.665 272.562 C 145.796 272.562,145.904 272.796,145.904 273.082 C 145.904 273.368,146.005 273.602,146.128 273.602 C 146.251 273.602,146.423 274.208,146.511 274.948 C 146.599 275.688,146.797 276.372,146.952 276.468 C 147.133 276.580,147.170 277.116,147.055 277.983 C 146.908 279.094,146.946 279.324,147.278 279.324 C 147.694 279.324,147.808 279.803,148.117 282.835 C 148.324 284.876,148.463 285.306,148.912 285.306 C 149.190 285.306,149.285 285.668,149.285 286.736 C 149.285 287.523,149.402 288.166,149.545 288.166 C 149.688 288.166,149.806 288.488,149.808 288.882 C 149.810 289.275,149.984 290.241,150.195 291.027 C 150.406 291.814,150.580 292.897,150.582 293.433 C 150.584 293.969,150.702 294.408,150.845 294.408 C 150.988 294.408,151.105 294.935,151.105 295.579 C 151.105 296.222,151.211 296.749,151.341 296.749 C 151.471 296.749,151.666 297.890,151.776 299.285 C 151.912 301.028,152.034 301.617,152.164 301.170 C 152.306 300.684,152.360 300.863,152.380 301.886 C 152.394 302.637,152.523 303.251,152.666 303.251 C 152.809 303.251,152.926 303.594,152.926 304.014 C 152.926 304.434,153.057 305.107,153.217 305.510 C 153.377 305.912,153.552 306.586,153.608 307.007 C 153.663 307.428,153.806 307.838,153.927 307.917 C 154.379 308.216,154.520 309.493,154.101 309.493 C 153.884 309.493,153.706 309.668,153.706 309.883 C 153.706 310.098,153.814 310.273,153.946 310.273 C 154.186 310.273,154.316 310.758,154.625 312.809 L 154.792 313.914 161.509 313.914 L 168.225 313.914 169.040 312.809 C 170.498 310.829,174.207 303.111,175.696 298.960 C 176.459 296.833,176.374 296.832,179.231 299.027 C 181.330 300.639,181.873 300.947,182.070 300.640 C 182.629 299.767,186.841 286.256,186.687 285.828 C 186.643 285.704,185.534 284.746,184.224 283.699 C 173.932 275.473,161.489 264.323,149.190 252.307 C 145.585 248.785,142.143 245.514,141.539 245.037 L 140.442 244.170 140.442 244.950 " stroke="none" fill="#80467a" fill-rule="evenodd"></path><path id="path3" d="M246.034 29.807 C 241.296 30.150,237.513 30.737,233.420 31.762 C 231.073 32.350,225.591 34.024,224.979 34.340 C 224.323 34.678,220.209 36.337,219.506 36.546 C 218.205 36.934,211.920 40.247,211.747 40.637 C 211.699 40.744,211.504 40.832,211.313 40.832 C 211.123 40.832,210.928 40.922,210.880 41.032 C 210.753 41.324,208.292 42.827,207.604 43.034 C 207.280 43.131,207.082 43.319,207.164 43.452 C 207.299 43.670,206.945 43.788,206.637 43.628 C 206.568 43.592,206.328 43.826,206.102 44.148 C 205.877 44.470,205.523 44.733,205.317 44.733 C 205.110 44.733,204.941 44.831,204.941 44.949 C 204.941 45.068,204.444 45.524,203.836 45.963 C 202.618 46.843,202.205 47.188,199.769 49.362 C 198.856 50.178,198.006 50.885,197.882 50.933 C 197.758 50.981,196.257 52.443,194.546 54.183 L 191.437 57.347 193.936 57.422 C 196.213 57.490,196.489 57.446,197.047 56.922 C 197.753 56.258,197.885 56.464,197.204 57.166 C 196.262 58.138,194.106 60.553,192.978 61.901 C 192.334 62.670,191.603 63.478,191.352 63.697 C 191.102 63.916,190.897 64.239,190.897 64.414 C 190.897 64.590,190.751 64.827,190.571 64.942 C 190.099 65.243,185.715 70.902,184.265 73.082 C 183.837 73.726,183.423 74.311,183.344 74.382 C 183.042 74.659,178.297 82.028,177.943 82.770 C 177.892 82.877,178.972 82.965,180.342 82.965 L 182.835 82.965 182.835 82.185 L 182.835 81.404 187.386 81.404 L 191.938 81.404 191.938 80.624 L 191.938 79.844 195.059 79.844 C 196.966 79.844,198.179 79.743,198.179 79.584 C 198.179 79.441,197.594 79.324,196.879 79.324 C 195.897 79.324,195.579 79.228,195.579 78.934 C 195.579 78.597,196.487 78.544,202.189 78.544 C 206.509 78.544,208.830 78.450,208.889 78.275 C 208.946 78.104,210.104 78.033,212.055 78.080 L 215.132 78.153 214.331 79.194 C 213.891 79.766,213.441 80.352,213.332 80.496 C 209.871 85.068,204.230 95.864,203.517 99.282 C 203.420 99.745,203.233 100.191,203.101 100.272 C 202.728 100.503,202.818 101.170,203.223 101.170 C 203.422 101.170,203.775 100.731,204.008 100.195 C 204.240 99.659,204.896 98.518,205.465 97.659 C 206.033 96.801,206.575 95.923,206.669 95.709 C 207.274 94.327,213.342 85.808,215.746 82.965 C 217.064 81.407,225.148 73.359,226.138 72.620 C 226.567 72.299,227.620 71.498,228.479 70.839 C 232.434 67.800,237.725 64.679,242.523 62.554 C 243.381 62.174,244.376 61.709,244.733 61.521 C 245.091 61.333,245.793 61.093,246.294 60.988 C 246.795 60.884,247.334 60.694,247.492 60.567 C 247.650 60.440,248.294 60.226,248.922 60.090 C 251.469 59.542,253.729 58.971,254.112 58.778 C 254.336 58.666,255.623 58.432,256.973 58.257 C 258.323 58.083,259.709 57.806,260.052 57.643 C 260.929 57.228,273.811 57.234,274.668 57.651 C 275.012 57.818,276.398 58.095,277.750 58.266 C 279.101 58.437,280.388 58.671,280.611 58.785 C 280.833 58.899,281.717 59.129,282.575 59.296 C 283.433 59.462,284.486 59.698,284.915 59.819 C 287.452 60.533,290.489 61.491,291.197 61.801 C 291.647 61.998,292.093 62.159,292.186 62.159 C 292.280 62.159,292.906 62.405,293.577 62.706 C 294.249 63.007,295.208 63.436,295.709 63.659 C 300.626 65.848,308.478 70.025,309.753 71.130 C 310.450 71.735,312.072 72.547,311.938 72.225 C 311.867 72.053,311.364 71.560,310.822 71.131 C 310.280 70.702,308.962 69.649,307.894 68.791 C 306.825 67.932,305.607 66.972,305.186 66.656 C 303.199 65.165,303.204 65.297,305.137 65.288 L 306.892 65.280 306.892 64.499 L 306.892 63.719 313.524 63.719 L 320.156 63.719 320.156 63.085 C 320.156 62.540,320.293 62.439,321.123 62.369 L 322.089 62.289 319.566 59.818 L 317.043 57.347 320.102 57.477 L 323.162 57.607 325.755 59.855 C 345.960 77.368,363.349 105.970,372.182 136.217 C 372.652 137.827,373.085 139.096,373.143 139.037 C 373.487 138.693,369.518 126.437,367.313 121.035 C 366.386 118.764,365.565 116.671,365.487 116.385 C 364.922 114.289,358.062 100.407,355.637 96.452 C 354.817 95.113,353.666 93.164,353.080 92.121 C 350.981 88.380,343.585 78.009,340.591 74.609 C 340.009 73.947,339.158 72.894,338.701 72.268 C 338.244 71.643,336.752 69.962,335.385 68.533 C 334.018 67.103,332.900 65.860,332.900 65.770 C 332.900 65.492,323.466 56.666,322.497 56.036 C 321.996 55.711,321.191 55.076,320.708 54.625 C 319.305 53.315,316.544 51.139,314.434 49.681 C 309.562 46.314,305.539 43.737,303.383 42.602 C 293.897 37.608,293.394 37.387,284.265 34.169 C 272.833 30.139,260.639 28.747,246.034 29.807 M28.447 66.883 C 30.393 67.964,32.618 70.145,35.303 73.602 C 36.469 75.104,38.259 77.328,39.281 78.544 C 50.500 91.896,58.399 101.088,64.632 108.047 C 65.921 109.486,67.443 111.199,68.013 111.855 C 68.584 112.510,70.270 114.382,71.760 116.016 C 73.249 117.649,74.998 119.571,75.645 120.286 C 76.292 121.001,77.648 122.465,78.658 123.539 C 79.668 124.612,81.957 127.067,83.745 128.994 C 95.124 141.257,127.932 174.366,128.319 173.978 C 128.382 173.915,126.859 172.341,124.933 170.481 C 119.395 165.135,101.442 147.164,97.009 142.531 C 94.792 140.213,92.100 137.418,91.027 136.320 C 89.954 135.222,88.082 133.217,86.866 131.865 C 85.650 130.512,83.953 128.672,83.095 127.776 C 82.237 126.880,80.832 125.361,79.974 124.400 C 79.116 123.439,77.711 121.917,76.853 121.018 C 75.995 120.119,74.824 118.850,74.252 118.197 C 73.680 117.544,72.685 116.456,72.042 115.779 C 71.398 115.103,70.321 113.909,69.648 113.126 C 68.976 112.344,68.021 111.235,67.527 110.663 C 67.033 110.091,65.711 108.651,64.590 107.462 C 63.469 106.274,62.433 105.098,62.290 104.849 C 62.040 104.417,61.225 103.454,59.818 101.929 C 58.066 100.031,57.252 99.103,56.189 97.789 C 55.552 97.003,54.849 96.176,54.628 95.953 C 54.407 95.730,53.583 94.797,52.796 93.881 C 52.009 92.965,51.044 91.880,50.650 91.471 C 50.257 91.062,49.934 90.648,49.933 90.552 C 49.931 90.456,49.551 89.967,49.087 89.466 C 48.624 88.965,47.659 87.855,46.944 87.001 C 46.229 86.146,45.468 85.260,45.254 85.031 C 44.827 84.575,44.356 84.005,42.788 82.047 C 42.219 81.336,41.634 80.627,41.488 80.472 C 41.342 80.317,40.813 79.682,40.312 79.062 C 39.811 78.441,39.051 77.543,38.622 77.066 C 37.705 76.047,37.213 75.428,36.126 73.927 C 35.686 73.319,35.219 72.822,35.088 72.822 C 34.957 72.822,34.850 72.654,34.850 72.449 C 34.850 71.906,30.315 67.444,29.183 66.873 C 27.457 66.002,26.876 66.010,28.447 66.883 M215.840 76.918 C 215.649 77.168,215.459 77.422,215.418 77.482 C 215.378 77.541,215.345 77.336,215.345 77.026 C 215.345 76.680,215.507 76.463,215.767 76.463 C 216.128 76.463,216.138 76.528,215.840 76.918 M251.008 130.982 C 250.545 131.639,250.211 132.222,250.267 132.278 C 250.322 132.333,250.751 131.845,251.219 131.193 C 251.687 130.541,252.021 129.958,251.960 129.897 C 251.900 129.836,251.471 130.325,251.008 130.982 M373.306 139.922 C 373.400 140.280,373.991 142.679,374.620 145.254 C 375.249 147.828,375.887 150.403,376.038 150.975 L 376.313 152.016 376.167 150.845 C 375.987 149.395,373.544 139.640,373.307 139.427 C 373.213 139.342,373.212 139.564,373.306 139.922 M376.701 154.618 C 377.042 157.591,377.749 161.508,377.944 161.508 C 378.229 161.508,378.237 161.584,377.496 157.355 C 376.838 153.606,376.420 152.166,376.701 154.618 M333.723 155.986 C 333.771 156.096,334.415 157.413,335.155 158.912 C 343.279 175.382,345.640 192.177,342.402 210.468 L 342.276 211.183 360.313 211.183 L 378.351 211.183 378.267 212.809 C 378.221 213.703,378.117 214.902,378.037 215.475 C 377.957 216.047,377.826 217.159,377.747 217.945 C 377.630 219.099,377.059 222.476,376.231 226.918 C 375.903 228.676,375.773 229.760,375.905 229.635 C 376.631 228.948,378.953 212.913,379.688 203.511 C 380.310 195.558,380.328 177.663,379.712 179.324 C 379.560 179.732,379.425 179.508,379.083 178.283 C 377.297 171.878,374.130 163.167,371.780 158.192 L 370.644 155.787 352.140 155.787 C 341.963 155.787,333.676 155.877,333.723 155.986 M377.943 162.289 C 377.937 162.646,378.026 163.466,378.140 164.109 L 378.348 165.280 378.350 164.239 C 378.351 163.667,378.263 162.848,378.153 162.419 C 377.974 161.712,377.954 161.699,377.943 162.289 M378.474 166.450 C 378.474 166.951,378.527 167.155,378.593 166.905 C 378.658 166.655,378.658 166.245,378.593 165.995 C 378.527 165.744,378.474 165.949,378.474 166.450 M378.739 168.401 C 378.742 168.973,378.795 169.176,378.858 168.853 C 378.920 168.529,378.917 168.061,378.852 167.812 C 378.787 167.564,378.736 167.828,378.739 168.401 M379.005 170.871 C 379.005 171.515,379.055 171.778,379.117 171.456 C 379.179 171.135,379.179 170.608,379.117 170.286 C 379.055 169.964,379.005 170.228,379.005 170.871 M379.265 173.472 C 379.265 174.116,379.315 174.379,379.377 174.057 C 379.439 173.735,379.439 173.209,379.377 172.887 C 379.315 172.565,379.265 172.828,379.265 173.472 M379.532 176.593 C 379.532 177.380,379.581 177.702,379.640 177.308 C 379.700 176.915,379.700 176.271,379.640 175.878 C 379.581 175.484,379.532 175.806,379.532 176.593 M111.862 217.115 C 111.109 219.074,110.365 220.969,110.210 221.326 C 110.054 221.684,109.890 222.172,109.845 222.412 C 109.799 222.651,109.106 224.524,108.303 226.573 C 106.799 230.415,103.606 239.112,103.236 240.377 L 103.027 241.092 112.892 241.092 C 122.583 241.092,122.757 241.083,122.757 240.572 C 122.757 240.286,122.874 240.052,123.017 240.052 C 123.160 240.052,123.277 239.701,123.277 239.272 C 123.277 238.843,123.406 238.492,123.563 238.492 C 123.962 238.492,125.358 236.954,125.358 236.513 C 125.358 236.314,125.475 236.151,125.618 236.151 C 125.761 236.151,125.889 235.888,125.904 235.566 C 125.929 235.004,125.938 235.007,126.138 235.631 C 126.338 236.254,126.347 236.257,126.372 235.696 C 126.386 235.374,126.515 235.111,126.658 235.111 C 127.032 235.111,126.979 234.398,126.593 234.242 C 126.391 234.161,126.432 234.104,126.702 234.091 C 126.966 234.078,127.204 233.763,127.308 233.290 C 127.439 232.693,127.623 232.510,128.090 232.510 C 128.464 232.510,128.735 232.333,128.790 232.055 C 128.858 231.712,129.444 232.154,131.150 233.835 C 133.963 236.604,134.112 236.519,131.404 233.690 C 128.825 230.995,124.328 225.996,118.364 219.193 C 115.768 216.232,113.551 213.751,113.438 213.681 C 113.325 213.611,112.615 215.156,111.862 217.115 M374.675 233.725 C 359.512 292.544,315.323 329.294,266.840 323.405 C 262.707 322.903,259.916 322.354,258.840 321.831 C 258.804 321.814,259.189 321.001,259.698 320.025 C 260.334 318.805,260.530 318.194,260.326 318.068 C 260.151 317.960,260.305 317.833,260.704 317.756 C 261.075 317.685,261.378 317.707,261.378 317.805 C 261.378 317.903,261.934 318.012,262.614 318.048 C 263.293 318.084,264.119 318.134,264.449 318.160 C 264.848 318.190,265.173 317.987,265.416 317.555 C 265.618 317.198,266.687 315.267,267.791 313.265 C 268.896 311.263,269.907 309.508,270.038 309.364 C 270.170 309.220,271.055 307.666,272.005 305.911 L 273.732 302.719 279.194 302.611 C 288.025 302.436,297.036 300.834,303.381 298.309 C 303.667 298.195,304.311 297.954,304.811 297.774 C 305.825 297.409,306.577 296.853,305.722 297.102 C 304.528 297.449,300.423 298.350,299.093 298.557 C 298.304 298.679,297.367 298.849,297.009 298.935 C 292.581 299.991,283.020 300.297,275.423 299.624 C 271.224 299.252,271.420 299.359,272.207 297.868 C 273.086 296.202,276.064 290.931,276.953 289.467 C 277.344 288.823,277.913 287.828,278.217 287.256 C 278.520 286.684,280.254 283.548,282.068 280.287 C 283.883 277.025,285.315 274.305,285.252 274.242 C 285.188 274.178,283.682 273.831,281.905 273.469 C 275.204 272.107,262.318 268.195,258.868 266.476 C 258.175 266.130,256.437 265.322,255.007 264.679 C 246.408 260.816,244.111 259.712,237.451 256.236 C 232.089 253.437,231.123 252.917,228.182 251.242 C 227.058 250.601,225.553 249.782,224.837 249.421 C 224.122 249.060,223.479 248.698,223.407 248.617 C 223.336 248.536,222.633 248.094,221.847 247.634 C 221.060 247.173,220.186 246.654,219.905 246.480 C 219.624 246.306,218.629 245.700,217.695 245.132 C 216.760 244.565,215.956 244.009,215.908 243.897 C 215.860 243.785,215.664 243.693,215.472 243.693 C 215.279 243.693,214.942 243.513,214.722 243.294 C 214.503 243.074,214.231 242.876,214.119 242.854 C 213.433 242.720,205.266 237.375,204.746 236.721 C 204.568 236.496,204.421 236.443,204.421 236.604 C 204.421 236.764,204.802 237.163,205.267 237.489 C 205.731 237.816,206.151 238.175,206.199 238.287 C 206.246 238.400,206.431 238.492,206.608 238.492 C 206.786 238.492,207.206 238.784,207.542 239.142 C 207.878 239.499,208.255 239.792,208.379 239.792 C 208.503 239.792,208.855 240.026,209.162 240.312 C 209.469 240.598,210.050 240.978,210.452 241.156 C 210.854 241.334,211.183 241.608,211.183 241.765 C 211.183 242.047,207.654 248.589,206.425 250.585 C 205.899 251.438,202.760 257.032,200.514 261.118 C 200.036 261.989,199.958 262.026,198.726 261.958 C 197.308 261.880,196.814 262.247,197.568 262.818 C 197.833 263.018,197.919 263.186,197.759 263.191 C 197.600 263.195,197.172 262.965,196.808 262.679 C 196.444 262.393,196.076 262.159,195.989 262.159 C 195.902 262.159,194.926 261.453,193.819 260.590 C 191.844 259.050,191.543 258.819,190.001 257.662 C 189.580 257.346,188.878 256.789,188.441 256.426 C 188.004 256.062,187.354 255.580,186.996 255.356 C 186.638 255.131,185.518 254.259,184.505 253.417 C 183.493 252.575,182.271 251.593,181.790 251.235 C 181.310 250.878,179.843 249.707,178.531 248.635 C 177.219 247.562,175.636 246.274,175.012 245.774 C 174.388 245.273,173.341 244.395,172.686 243.823 C 172.030 243.251,170.931 242.315,170.243 241.743 C 169.555 241.170,168.793 240.527,168.550 240.312 C 166.958 238.907,164.960 237.254,164.629 237.070 C 164.230 236.847,169.283 242.154,170.221 242.943 C 170.507 243.183,171.808 244.435,173.113 245.725 L 175.484 248.070 174.780 249.327 C 173.155 252.231,171.756 254.430,171.517 254.457 C 171.365 254.475,171.209 252.973,171.131 250.761 L 171.001 247.037 170.026 248.734 C 169.490 249.668,169.051 250.498,169.051 250.578 C 169.051 250.658,168.078 252.450,166.889 254.560 L 164.726 258.398 169.013 262.424 C 171.370 264.638,173.794 266.918,174.399 267.490 C 175.005 268.062,176.179 269.116,177.010 269.831 C 177.840 270.546,179.169 271.704,179.962 272.404 C 182.289 274.456,182.879 274.962,184.525 276.320 C 187.749 278.976,188.051 279.329,187.561 279.863 C 187.322 280.124,186.720 281.097,186.223 282.026 L 185.320 283.714 185.938 284.250 C 186.278 284.544,186.647 284.785,186.758 284.785 C 187.571 284.785,186.520 288.834,183.008 299.220 C 176.958 317.118,166.618 328.351,153.576 331.197 C 152.432 331.446,151.384 331.756,151.248 331.885 C 150.288 332.796,157.045 330.674,160.468 328.989 C 172.781 322.929,179.302 313.401,185.833 291.934 C 187.458 286.593,188.036 285.079,188.036 286.164 C 188.036 286.407,188.160 286.606,188.312 286.606 C 188.463 286.606,188.504 286.741,188.402 286.906 C 188.295 287.080,188.330 287.136,188.485 287.041 C 188.733 286.887,190.516 288.095,191.862 289.330 C 192.179 289.620,192.744 290.091,193.119 290.377 C 193.493 290.663,193.937 291.019,194.104 291.167 C 194.874 291.849,197.583 293.628,197.853 293.628 C 198.018 293.628,198.247 293.777,198.362 293.959 C 198.476 294.142,198.905 294.522,199.314 294.805 C 199.724 295.087,200.601 295.702,201.265 296.170 C 201.928 296.639,203.114 297.448,203.901 297.968 C 204.688 298.489,205.418 299.042,205.523 299.197 C 205.637 299.366,205.719 299.375,205.726 299.220 C 205.733 299.077,205.881 299.135,206.055 299.350 C 206.229 299.564,206.899 300.021,207.542 300.364 C 208.186 300.708,210.000 301.834,211.573 302.867 C 214.056 304.496,216.579 305.923,225.618 310.809 C 229.556 312.938,244.109 318.982,246.554 319.504 C 247.055 319.611,249.278 320.218,251.495 320.852 C 270.820 326.384,290.136 325.552,308.322 318.407 C 313.620 316.325,325.677 309.791,326.658 308.471 C 326.784 308.302,328.004 307.454,330.169 306.033 C 330.741 305.657,332.513 304.189,334.107 302.769 C 335.700 301.349,337.181 300.087,337.398 299.964 C 337.950 299.650,345.799 291.368,347.139 289.685 C 347.747 288.921,348.713 287.770,349.285 287.126 C 349.858 286.482,350.737 285.371,351.240 284.655 C 353.614 281.276,354.102 280.568,355.900 277.893 C 361.847 269.047,369.744 252.485,371.890 244.356 C 372.156 243.348,372.918 240.709,373.582 238.492 C 375.064 233.546,375.865 230.457,375.753 230.121 C 375.707 229.982,375.222 231.603,374.675 233.725 M149.350 332.048 C 148.885 332.105,148.505 332.275,148.505 332.424 C 148.505 332.573,148.690 332.624,148.916 332.538 C 149.142 332.451,149.669 332.380,150.086 332.380 C 150.504 332.380,150.845 332.263,150.845 332.120 C 150.845 331.977,150.699 331.878,150.520 331.901 C 150.341 331.924,149.815 331.990,149.350 332.048 M144.801 332.824 C 145.125 332.886,145.593 332.884,145.842 332.818 C 146.090 332.753,145.826 332.702,145.254 332.705 C 144.681 332.708,144.478 332.762,144.801 332.824 M86.151 333.095 C 96.557 333.133,113.586 333.133,123.992 333.095 C 134.399 333.057,125.884 333.026,105.072 333.026 C 84.259 333.026,75.744 333.057,86.151 333.095 M8.583 360.078 C 8.583 360.417,9.695 360.468,17.035 360.468 C 24.375 360.468,25.488 360.417,25.488 360.078 C 25.488 359.739,24.375 359.688,17.035 359.688 C 9.695 359.688,8.583 359.739,8.583 360.078 M51.756 360.078 C 51.756 360.417,52.854 360.468,60.078 360.468 C 67.302 360.468,68.401 360.417,68.401 360.078 C 68.401 359.739,67.302 359.688,60.078 359.688 C 52.854 359.688,51.756 359.739,51.756 360.078 M84.525 360.078 C 84.525 360.422,87.805 360.468,112.484 360.468 C 137.162 360.468,140.442 360.422,140.442 360.078 C 140.442 359.734,137.162 359.688,112.484 359.688 C 87.805 359.688,84.525 359.734,84.525 360.078 M152.666 360.049 C 152.666 360.430,154.007 360.465,167.425 360.436 C 177.196 360.414,181.789 360.322,181.014 360.163 C 178.646 359.678,152.666 359.573,152.666 360.049 M278.315 359.968 C 273.475 360.328,274.647 360.470,282.206 360.440 C 286.334 360.423,288.899 360.327,288.296 360.212 C 286.485 359.864,281.382 359.740,278.315 359.968 M331.599 360.078 C 331.599 360.422,334.879 360.468,359.558 360.468 C 384.236 360.468,387.516 360.422,387.516 360.078 C 387.516 359.734,384.236 359.688,359.558 359.688 C 334.879 359.688,331.599 359.734,331.599 360.078 " stroke="none" fill="#d581d8" fill-rule="evenodd"></path><path id="path4" d="M21.777 66.157 C 21.863 66.296,21.685 66.338,21.367 66.255 C 21.004 66.160,20.867 66.207,20.979 66.388 C 21.088 66.565,20.993 66.607,20.719 66.502 C 20.472 66.407,20.286 66.463,20.286 66.631 C 20.286 66.794,20.213 66.853,20.123 66.764 C 19.545 66.185,16.963 68.722,16.262 70.557 C 14.713 74.613,16.399 80.379,21.451 88.296 C 22.912 90.585,25.104 94.038,26.324 95.969 C 29.237 100.581,40.033 116.958,42.729 120.856 C 43.045 121.312,43.823 122.513,44.457 123.525 C 45.092 124.537,45.800 125.568,46.031 125.816 C 46.261 126.065,47.838 128.316,49.535 130.819 C 51.232 133.322,53.394 136.424,54.340 137.711 C 55.286 138.999,56.394 140.579,56.804 141.222 C 57.214 141.866,58.708 143.973,60.125 145.904 C 61.542 147.835,64.060 151.287,65.720 153.576 C 70.060 159.557,73.916 164.718,74.269 165.020 C 74.437 165.163,75.076 166.040,75.690 166.970 C 76.303 167.900,77.876 170.007,79.186 171.651 C 80.495 173.296,81.911 175.129,82.331 175.724 C 84.705 179.084,91.362 187.241,91.606 187.090 C 91.778 186.984,91.813 187.037,91.695 187.227 C 91.477 187.581,92.014 188.360,92.339 188.159 C 92.456 188.087,92.637 188.165,92.740 188.332 C 92.858 188.523,92.815 188.567,92.628 188.451 C 92.012 188.071,92.371 188.647,93.879 190.462 C 95.866 192.852,98.357 195.905,100.583 198.678 C 101.550 199.882,102.897 201.520,103.577 202.319 C 104.257 203.118,106.036 205.234,107.529 207.022 C 109.023 208.810,110.848 210.917,111.585 211.704 L 112.926 213.134 111.534 211.472 C 110.769 210.558,109.275 208.744,108.214 207.441 C 107.153 206.138,105.569 204.252,104.693 203.251 C 103.818 202.250,102.603 200.755,101.994 199.930 C 101.385 199.105,100.043 197.452,99.013 196.257 C 97.982 195.062,96.934 193.748,96.684 193.336 C 96.433 192.925,95.986 192.211,95.689 191.751 L 95.150 190.914 96.624 188.287 C 98.043 185.759,98.081 185.642,97.643 185.157 C 97.197 184.665,97.176 184.675,96.706 185.630 C 95.591 187.891,94.258 189.826,93.947 189.633 C 93.719 189.492,93.920 188.991,94.661 187.850 C 95.228 186.977,95.945 185.743,96.254 185.108 L 96.815 183.953 94.254 180.598 C 91.077 176.437,84.411 167.525,83.233 165.865 C 82.751 165.185,82.259 164.629,82.141 164.629 C 82.022 164.629,81.925 164.516,81.925 164.378 C 81.925 164.240,81.069 162.982,80.024 161.582 C 78.979 160.183,77.726 158.453,77.239 157.737 C 76.753 157.022,76.263 156.320,76.151 156.177 C 75.651 155.539,73.943 153.230,73.451 152.528 C 73.153 152.103,72.458 151.112,71.905 150.325 C 71.353 149.538,70.545 148.368,70.110 147.724 C 69.321 146.556,68.789 145.859,68.240 145.277 C 67.711 144.717,67.561 143.818,67.924 143.382 C 68.115 143.153,68.750 142.094,69.336 141.028 L 70.402 139.091 73.071 142.095 C 74.538 143.747,76.014 145.471,76.350 145.927 C 76.685 146.382,77.170 146.952,77.427 147.194 C 77.851 147.594,80.597 150.645,81.742 151.987 C 82.816 153.247,85.263 156.014,86.483 157.347 C 87.203 158.134,88.724 159.831,89.863 161.118 C 91.003 162.406,92.000 163.518,92.079 163.589 C 92.340 163.825,95.288 167.074,97.139 169.167 C 100.611 173.093,101.931 174.264,102.696 174.102 C 103.314 173.971,103.338 173.992,102.936 174.321 C 102.534 174.650,102.529 174.739,102.886 175.249 C 103.421 176.014,103.608 175.964,104.179 174.902 C 104.449 174.402,104.798 173.992,104.954 173.992 C 105.390 173.992,107.834 169.495,107.465 169.372 C 107.264 169.305,107.417 168.889,107.900 168.184 C 108.310 167.588,109.381 165.709,110.281 164.009 C 111.234 162.207,112.109 160.868,112.377 160.797 C 113.431 160.522,113.138 159.886,110.987 157.772 C 108.208 155.041,91.526 137.685,86.326 132.114 C 67.484 111.929,50.147 92.163,35.404 74.063 C 29.728 67.093,28.128 65.962,23.905 65.930 C 22.544 65.920,21.687 66.011,21.777 66.157 M170.411 83.940 C 169.738 84.913,169.519 85.306,169.651 85.306 C 169.712 85.306,170.072 84.837,170.450 84.265 C 171.220 83.102,171.186 82.821,170.411 83.940 M167.143 89.142 C 166.517 90.174,164.886 93.438,165.097 93.238 C 165.458 92.894,167.575 88.947,167.398 88.947 C 167.323 88.947,167.208 89.034,167.143 89.142 M164.239 94.408 C 164.017 94.837,163.894 95.189,163.966 95.189 C 164.037 95.189,164.277 94.837,164.499 94.408 C 164.721 93.979,164.844 93.628,164.773 93.628 C 164.701 93.628,164.461 93.979,164.239 94.408 M163.269 96.034 C 162.700 96.911,162.190 97.956,162.475 97.659 C 162.840 97.280,163.913 95.449,163.770 95.449 C 163.704 95.449,163.478 95.712,163.269 96.034 M161.681 98.765 C 161.309 99.382,152.569 116.857,151.438 119.246 C 148.211 126.063,147.113 128.488,146.267 130.673 C 145.771 131.952,145.268 133.122,145.149 133.274 C 144.847 133.660,140.788 142.982,140.193 144.657 C 139.685 146.088,137.361 151.764,136.540 153.576 C 136.109 154.528,135.065 157.171,132.944 162.679 C 132.503 163.823,131.318 166.793,130.311 169.277 C 129.303 171.762,128.479 173.943,128.479 174.124 C 128.479 174.679,143.006 188.146,151.779 195.723 C 171.240 212.532,184.531 223.053,199.719 233.674 C 204.518 237.030,204.294 236.934,204.670 235.795 C 204.835 235.294,205.058 234.847,205.165 234.802 C 205.388 234.708,208.897 225.837,210.547 221.196 C 211.157 219.480,212.731 215.384,214.044 212.094 C 215.357 208.804,216.701 205.293,217.031 204.291 C 217.362 203.290,218.624 199.954,219.836 196.879 C 221.048 193.804,222.422 190.234,222.890 188.947 C 223.358 187.659,224.617 184.441,225.688 181.795 C 226.759 179.148,228.367 175.169,229.262 172.952 C 231.187 168.180,231.359 167.781,232.916 164.458 C 234.028 162.087,235.819 158.183,237.373 154.746 C 237.729 153.960,238.637 152.204,239.392 150.845 C 240.147 149.486,241.379 147.204,242.128 145.774 C 242.878 144.343,243.966 142.358,244.546 141.363 C 245.126 140.367,245.600 139.407,245.600 139.229 C 245.600 139.050,245.690 138.960,245.799 139.027 C 246.061 139.189,246.327 138.738,246.409 137.995 C 246.499 137.168,250.866 130.508,253.586 127.048 C 256.073 123.885,256.855 122.757,256.562 122.757 C 256.455 122.757,256.179 122.975,255.947 123.241 C 253.770 125.745,252.250 127.699,250.455 130.300 C 249.954 131.026,249.051 132.288,248.446 133.105 C 247.842 133.922,247.345 134.679,247.341 134.788 C 247.337 134.897,246.949 135.541,246.477 136.219 C 245.581 137.508,242.394 142.982,240.080 147.204 C 238.299 150.455,234.923 157.341,230.997 165.731 C 230.613 166.552,230.153 167.225,229.974 167.227 C 229.795 167.229,229.649 167.406,229.649 167.620 C 229.649 167.924,229.302 168.010,228.088 168.010 C 226.597 168.010,226.528 168.039,226.528 168.661 C 226.528 169.267,226.441 169.311,225.228 169.311 L 223.927 169.311 223.927 170.481 C 223.927 171.645,223.922 171.651,223.017 171.651 C 221.957 171.651,221.950 171.628,222.605 170.238 C 222.879 169.657,223.421 168.362,223.809 167.360 C 224.197 166.359,224.721 165.072,224.973 164.499 C 225.225 163.927,225.922 162.289,226.523 160.858 C 231.948 147.936,241.485 130.684,247.009 123.801 C 247.331 123.400,247.594 123.001,247.594 122.914 C 247.594 122.828,235.674 122.757,221.105 122.757 L 194.616 122.757 193.887 124.512 C 193.486 125.478,192.956 126.736,192.710 127.308 C 192.463 127.880,191.714 129.636,191.046 131.209 C 190.377 132.783,189.723 134.304,189.592 134.590 C 189.353 135.114,187.616 139.365,184.490 147.074 C 183.562 149.363,182.646 151.586,182.454 152.016 C 182.261 152.445,181.795 153.557,181.418 154.486 C 181.040 155.416,180.624 156.411,180.494 156.697 C 180.213 157.314,179.793 158.332,178.240 162.159 C 177.601 163.732,176.842 165.517,176.553 166.125 L 176.026 167.230 174.359 167.230 C 173.050 167.230,172.692 167.314,172.692 167.620 C 172.692 167.930,172.316 168.010,170.871 168.010 C 169.103 168.010,169.051 168.029,169.051 168.661 C 169.051 169.292,168.999 169.311,167.230 169.311 L 165.410 169.311 165.410 170.481 L 165.410 171.651 162.289 171.651 C 160.381 171.651,159.168 171.753,159.168 171.912 C 159.168 172.056,158.474 172.172,157.607 172.172 L 156.047 172.172 156.047 172.952 L 156.047 173.732 154.096 173.732 C 152.969 173.732,152.146 173.842,152.146 173.992 C 152.146 174.135,151.678 174.252,151.105 174.252 L 150.065 174.252 150.065 175.423 L 150.065 176.593 148.375 176.593 C 147.421 176.593,146.684 176.706,146.684 176.853 C 146.684 177.013,145.427 177.113,143.433 177.113 C 140.717 177.113,140.182 177.177,140.182 177.503 C 140.182 177.807,140.529 177.893,141.743 177.893 C 142.956 177.893,143.303 177.980,143.303 178.283 C 143.303 178.587,142.956 178.674,141.743 178.674 C 140.251 178.674,140.182 178.702,140.182 179.324 C 140.182 180.378,135.746 180.319,134.396 179.246 C 133.571 178.590,133.516 178.470,133.840 178.026 C 134.038 177.755,134.200 177.374,134.200 177.179 C 134.200 176.984,134.417 176.334,134.683 175.733 C 134.948 175.133,135.897 172.536,136.791 169.961 C 137.685 167.386,138.638 164.783,138.909 164.177 C 139.180 163.571,139.402 162.971,139.402 162.845 C 139.402 162.645,139.927 161.322,140.705 159.558 C 140.832 159.272,141.245 158.218,141.624 157.217 C 142.716 154.330,145.147 148.218,145.679 147.023 C 145.946 146.423,146.164 145.858,146.164 145.768 C 146.164 145.678,146.565 144.647,147.055 143.478 C 149.711 137.140,152.247 131.115,152.548 130.429 C 152.736 130.000,153.439 128.362,154.111 126.788 C 154.783 125.215,155.418 123.810,155.522 123.667 C 155.869 123.190,156.293 121.694,156.036 121.853 C 155.899 121.938,155.787 122.176,155.787 122.382 C 155.787 122.683,155.278 122.757,153.192 122.757 C 150.607 122.757,150.599 122.755,150.830 122.172 C 151.512 120.450,152.762 117.624,153.965 115.085 C 154.710 113.511,155.361 112.011,155.411 111.751 C 155.462 111.492,156.567 109.293,157.867 106.864 C 160.138 102.622,162.108 98.570,161.899 98.570 C 161.844 98.570,161.746 98.657,161.681 98.765 M293.888 102.482 C 281.799 103.935,270.738 109.363,261.737 118.261 C 259.475 120.497,254.881 125.816,254.878 126.203 C 254.877 126.310,258.212 126.398,262.289 126.398 C 268.704 126.398,269.701 126.450,269.701 126.788 C 269.701 127.164,269.992 127.286,270.676 127.198 C 270.855 127.174,271.011 127.365,271.022 127.622 C 271.034 127.895,271.097 127.953,271.174 127.763 C 271.356 127.310,271.782 127.356,271.782 127.828 C 271.782 128.045,272.013 128.218,272.302 128.218 C 272.591 128.218,272.822 128.392,272.822 128.609 C 272.822 128.878,273.093 128.999,273.702 128.999 C 274.363 128.999,274.616 129.128,274.718 129.519 C 274.819 129.907,275.074 130.040,275.723 130.043 C 276.361 130.046,276.491 130.111,276.210 130.289 C 275.604 130.672,276.084 130.901,277.828 131.061 C 277.936 131.071,278.023 131.250,278.023 131.458 C 278.023 131.684,278.389 131.905,278.934 132.007 C 279.455 132.105,279.844 132.332,279.844 132.539 C 279.844 132.747,280.110 132.900,280.472 132.900 C 280.818 132.900,281.142 133.024,281.193 133.175 C 281.243 133.326,281.487 133.372,281.734 133.277 C 282.229 133.087,282.403 131.079,281.925 131.079 C 281.782 131.079,281.664 130.787,281.664 130.429 C 281.664 130.072,281.547 129.779,281.404 129.779 C 281.258 129.779,281.144 129.049,281.144 128.110 C 281.144 127.018,281.032 126.396,280.819 126.310 C 280.559 126.205,280.559 126.175,280.819 126.158 C 280.998 126.147,281.144 125.972,281.144 125.769 C 281.144 125.567,280.998 125.333,280.819 125.249 C 280.559 125.128,280.559 125.067,280.819 124.946 C 280.998 124.862,281.144 124.453,281.144 124.036 C 281.144 123.604,281.004 123.275,280.819 123.273 C 280.602 123.270,280.623 123.184,280.884 123.013 C 281.231 122.785,281.231 122.728,280.884 122.497 C 280.537 122.266,280.537 122.206,280.884 121.957 C 281.178 121.746,281.194 121.644,280.949 121.545 C 280.770 121.472,280.624 121.080,280.624 120.673 C 280.624 120.266,280.430 119.739,280.192 119.501 C 279.825 119.134,279.815 119.030,280.127 118.812 C 280.409 118.616,280.418 118.525,280.169 118.424 C 279.830 118.286,279.696 115.995,280.027 115.995 C 282.983 115.995,296.928 121.888,303.641 125.973 C 305.215 126.931,306.151 127.419,305.722 127.058 L 304.941 126.401 327.989 126.399 L 351.036 126.398 352.958 128.414 C 363.327 139.290,372.591 156.195,377.913 173.953 C 378.626 176.335,379.263 178.401,379.327 178.544 C 379.731 179.448,378.516 167.453,377.618 161.665 C 375.642 148.938,372.031 134.994,368.231 125.423 L 367.173 122.757 362.390 122.757 C 359.760 122.757,357.607 122.799,357.607 122.852 C 357.607 122.904,357.955 123.343,358.380 123.827 C 358.805 124.311,359.288 125.029,359.452 125.423 C 359.616 125.816,359.854 126.138,359.980 126.138 C 360.105 126.138,360.208 126.255,360.208 126.398 C 360.208 126.553,359.216 126.658,357.752 126.658 L 355.296 126.658 355.217 127.720 L 355.137 128.782 352.016 125.776 C 350.299 124.123,348.749 122.767,348.572 122.763 C 348.194 122.756,346.936 121.813,343.658 119.081 C 328.603 106.535,310.477 100.490,293.888 102.482 M117.685 163.589 C 118.535 164.447,119.288 165.150,119.360 165.150 C 119.431 165.150,118.795 164.447,117.945 163.589 C 117.096 162.731,116.343 162.029,116.271 162.029 C 116.200 162.029,116.836 162.731,117.685 163.589 M374.832 225.180 C 371.834 231.266,370.310 234.003,368.217 237.061 C 366.418 239.689,364.403 243.128,361.511 248.505 C 360.895 249.649,359.725 251.697,358.910 253.056 C 358.094 254.415,356.869 256.580,356.187 257.867 C 354.312 261.404,352.078 265.393,351.891 265.540 C 351.735 265.661,350.325 268.125,350.325 268.275 C 350.325 268.313,350.619 268.418,350.977 268.508 L 351.629 268.671 350.197 271.354 C 349.409 272.829,348.765 274.332,348.765 274.693 C 348.765 275.054,348.473 275.780,348.116 276.305 C 347.515 277.192,345.736 280.258,344.886 281.876 C 344.575 282.467,343.121 284.410,341.937 285.818 C 340.615 287.389,339.600 288.841,338.607 290.583 C 335.897 295.335,335.942 295.239,336.281 295.448 C 336.517 295.595,336.093 296.558,334.719 298.995 C 333.682 300.835,332.767 302.458,332.686 302.601 C 332.156 303.543,337.702 298.647,341.266 295.028 C 356.661 279.391,367.983 258.391,374.130 234.070 C 374.883 231.091,376.886 221.533,376.780 221.427 C 376.744 221.390,375.867 223.079,374.832 225.180 M106.414 230.310 C 105.978 231.267,106.062 231.471,106.533 230.601 C 106.753 230.195,106.884 229.814,106.825 229.755 C 106.765 229.695,106.580 229.945,106.414 230.310 M324.374 245.334 C 313.806 257.524,299.403 266.876,283.643 271.782 C 281.942 272.312,280.656 272.811,280.785 272.890 C 280.914 272.970,282.774 273.331,284.918 273.692 C 307.525 277.498,328.534 272.882,346.281 260.210 C 351.590 256.419,359.286 248.839,362.323 244.408 L 363.348 242.913 344.911 242.913 L 326.473 242.913 324.374 245.334 M101.073 244.208 C 100.486 245.675,100.576 245.893,101.194 244.500 C 101.473 243.872,101.655 243.311,101.598 243.254 C 101.542 243.198,101.305 243.627,101.073 244.208 M98.459 250.734 C 97.362 253.476,96.507 255.762,96.559 255.814 C 96.612 255.866,97.551 253.665,98.647 250.922 C 99.742 248.180,100.597 245.894,100.546 245.843 C 100.495 245.792,99.556 247.993,98.459 250.734 M279.658 252.844 C 279.403 253.109,278.702 253.719,278.101 254.200 C 277.500 254.681,277.080 255.147,277.169 255.236 C 277.257 255.324,277.129 255.397,276.885 255.397 C 276.640 255.397,276.152 255.684,275.801 256.035 C 275.450 256.386,275.161 256.591,275.159 256.490 C 275.156 256.389,275.069 256.424,274.964 256.567 C 274.858 256.710,273.661 257.581,272.302 258.503 C 270.943 259.424,269.772 260.256,269.701 260.351 C 269.566 260.531,265.810 262.787,264.561 263.438 C 264.172 263.642,263.698 263.963,263.508 264.154 C 263.317 264.344,263.057 264.499,262.929 264.499 C 262.801 264.499,261.918 264.928,260.966 265.451 C 259.243 266.398,259.238 266.404,259.889 266.745 C 261.995 267.849,277.735 272.605,279.064 272.540 C 279.330 272.527,279.351 272.479,279.129 272.390 C 278.950 272.317,278.804 272.093,278.804 271.890 C 278.804 271.687,278.678 271.521,278.525 271.521 C 278.372 271.521,278.430 271.338,278.655 271.113 C 278.904 270.864,279.064 270.253,279.064 269.552 C 279.064 268.919,279.181 268.401,279.324 268.401 C 279.467 268.401,279.584 268.225,279.584 268.010 C 279.584 267.796,279.467 267.620,279.324 267.620 C 279.181 267.620,279.064 267.269,279.064 266.840 C 279.064 266.411,279.164 266.060,279.286 266.060 C 279.408 266.060,279.579 265.221,279.665 264.197 C 279.756 263.110,279.961 262.245,280.157 262.120 C 280.417 261.955,280.420 261.906,280.169 261.903 C 279.783 261.898,279.723 260.422,280.104 260.295 C 280.516 260.157,280.694 253.326,280.298 252.837 C 280.073 252.559,280.068 252.492,280.281 252.620 C 280.450 252.721,280.650 252.705,280.725 252.583 C 280.990 252.155,280.116 252.369,279.658 252.844 M95.717 257.802 C 95.401 258.696,93.876 262.646,92.328 266.580 C 90.780 270.514,89.273 274.450,88.978 275.327 C 88.432 276.949,84.439 287.227,83.433 289.597 C 83.129 290.312,82.618 291.717,82.297 292.718 C 81.975 293.719,80.596 297.364,79.231 300.818 C 77.866 304.273,76.344 308.252,75.849 309.661 C 75.355 311.071,73.932 314.798,72.687 317.945 C 71.443 321.092,70.155 324.486,69.824 325.488 C 69.493 326.489,68.745 328.530,68.161 330.024 C 67.578 331.518,67.100 332.780,67.100 332.829 C 67.100 333.229,145.254 332.705,147.724 332.288 C 164.242 329.502,174.059 321.215,180.847 304.327 L 182.013 301.426 179.498 299.488 C 178.115 298.423,176.868 297.536,176.727 297.517 C 176.587 297.498,175.814 299.186,175.010 301.269 C 167.298 321.250,156.185 328.925,136.216 328.059 L 132.120 327.882 132.120 326.508 C 132.120 325.634,132.261 324.993,132.510 324.745 C 132.983 324.271,133.024 323.111,132.575 322.928 C 132.333 322.830,132.326 322.741,132.550 322.582 C 132.715 322.463,132.929 321.313,133.026 320.026 C 133.123 318.739,133.250 317.334,133.309 316.905 C 133.367 316.476,133.486 314.662,133.574 312.874 C 133.661 311.086,133.796 309.518,133.876 309.389 C 133.955 309.260,134.062 307.744,134.115 306.020 C 134.180 303.917,134.317 302.818,134.531 302.682 C 134.782 302.522,134.781 302.478,134.525 302.475 C 134.347 302.473,134.200 302.295,134.200 302.081 C 134.200 301.866,134.317 301.691,134.460 301.691 C 134.839 301.691,134.780 299.937,134.395 299.781 C 134.161 299.687,134.151 299.589,134.360 299.435 C 134.852 299.069,135.406 291.739,135.468 284.785 C 135.516 279.347,135.594 278.101,135.904 277.865 C 136.330 277.539,136.420 276.463,136.021 276.463 C 135.878 276.463,135.761 276.749,135.761 277.098 C 135.761 277.447,135.644 277.805,135.501 277.893 C 135.358 277.982,135.241 278.340,135.241 278.689 C 135.241 279.150,135.099 279.324,134.720 279.324 C 134.374 279.324,134.200 279.497,134.200 279.844 C 134.200 280.130,134.083 280.364,133.940 280.364 C 133.797 280.364,133.672 280.569,133.662 280.819 C 133.646 281.207,133.612 281.197,133.429 280.754 C 133.262 280.349,133.173 280.535,133.024 281.599 L 132.833 282.965 131.729 282.965 C 130.705 282.965,130.613 283.023,130.465 283.760 C 130.306 284.555,129.519 285.624,129.519 285.046 C 129.519 284.864,129.367 284.900,129.129 285.138 C 128.914 285.353,128.739 285.703,128.739 285.916 C 128.739 286.128,128.634 286.342,128.507 286.389 C 128.380 286.437,127.919 287.266,127.483 288.231 L 126.691 289.987 105.478 289.987 C 93.811 289.987,84.265 289.897,84.265 289.788 C 84.265 289.407,87.350 280.728,88.924 276.683 C 89.795 274.443,90.507 272.485,90.507 272.332 C 90.507 272.179,91.779 268.803,93.334 264.830 C 95.975 258.081,96.649 256.177,96.396 256.177 C 96.339 256.177,96.033 256.908,95.717 257.802 " stroke="none" fill="#ed5970" fill-rule="evenodd"></path></g></svg>